<?xml version="1.0" encoding="UTF-8"?>
<svg id="Capa_1" data-name="Capa 1" xmlns="http://www.w3.org/2000/svg" viewBox="0 0 507.81 255.86">
  <defs>
    <style>
      .cls-1, .cls-2 {
        fill: #1a2722;
      }

      .cls-3 {
        fill: #fff;
      }

      .cls-3, .cls-4, .cls-2 {
        stroke: #dfe1d6;
        stroke-miterlimit: 10;
      }

      .cls-4, .cls-5 {
        fill: #dfe1d6;
      }
    </style>
  </defs>
  <path class="cls-5" d="M270.06,56.65c.21-1.51,1.03-2.42,2.46-2.72,1.43-.3,2.95-.19,4.56.34,1.6.53,2.99,1.36,4.17,2.51,1.18,1.15,1.59,2.42,1.21,3.81-2.55,9.67-5.22,19.41-8.01,29.22-2.79,9.82-5.6,19.24-8.44,28.29-2.84,9.05-5.65,17.53-8.44,25.45-2.79,7.93-5.42,14.86-7.89,20.81-2.47,5.95-4.76,10.72-6.86,14.31-2.1,3.59-3.91,5.54-5.41,5.85-1.64.41-3.33.39-5.06-.04-1.74-.43-3.39-1.17-4.96-2.22-1.57-1.05-2.97-2.37-4.18-3.95-1.21-1.59-2.08-3.34-2.61-5.26-.37-1.42-.41-3.88-.11-7.38.3-3.49.75-7.6,1.34-12.33.59-4.72,1.21-9.84,1.86-15.36.65-5.51,1.1-10.99,1.36-16.44.3-5.16.46-10.15.48-14.97.02-4.82-.14-9.09-.46-12.82-.33-3.73-.89-6.68-1.67-8.85-.79-2.17-1.88-3.22-3.28-3.15-1.69.12-3.47,1.05-5.34,2.79-1.88,1.74-3.72,4.02-5.54,6.82-1.82,2.81-3.57,6.01-5.27,9.61-1.69,3.6-3.18,7.34-4.46,11.21-1.28,3.87-2.32,7.74-3.12,11.61-.8,3.87-1.2,7.43-1.21,10.69-.02,1.26-.65,2.09-1.89,2.47-1.24.38-2.55.38-3.95,0-1.39-.37-2.64-1.12-3.74-2.24-1.1-1.12-1.53-2.55-1.29-4.3.56-3.94,1.45-8.07,2.66-12.37,1.21-4.3,2.66-8.5,4.35-12.58,1.69-4.08,3.62-7.98,5.77-11.69,2.16-3.71,4.5-6.95,7.03-9.72,2.53-2.77,5.22-4.99,8.07-6.66,2.85-1.67,5.78-2.56,8.81-2.67,3.54-.11,6.35,1.04,8.44,3.45,2.08,2.41,3.64,5.69,4.66,9.83,1.02,4.14,1.62,8.88,1.8,14.22.18,5.35.11,10.92-.2,16.71-.31,5.79-.77,11.55-1.39,17.28-.62,5.73-1.19,11.04-1.71,15.94-.53,4.9-.89,9.15-1.11,12.74-.21,3.59-.1,6.09.35,7.5.47,1.56,1.29,1.74,2.48.55,1.18-1.19,2.59-3.41,4.23-6.67,1.63-3.26,3.45-7.4,5.44-12.42,1.99-5.02,4.02-10.6,6.09-16.74,2.07-6.14,4.13-12.67,6.19-19.6,2.06-6.92,3.98-13.89,5.76-20.92,1.78-7.02,3.38-13.94,4.79-20.76,1.41-6.82,2.49-13.21,3.26-19.19Z"/>
  <path class="cls-5" d="M277.08,150.59c.89.45,2.1.39,3.64-.18,1.54-.58,3.25-1.47,5.13-2.7,1.88-1.22,3.84-2.66,5.88-4.32,2.04-1.65,4.01-3.37,5.91-5.16,1.9-1.78,3.64-3.56,5.22-5.32,1.57-1.77,2.88-3.33,3.93-4.68.38-.43.87-.58,1.48-.46.61.13,1.13.45,1.54.98.42.53.63,1.16.63,1.9,0,.74-.45,1.48-1.37,2.22-1.36,1.7-2.97,3.64-4.81,5.82-1.84,2.18-3.84,4.35-5.98,6.5-2.14,2.16-4.39,4.21-6.75,6.18-2.36,1.97-4.7,3.65-7.04,5.06-2.34,1.41-4.64,2.44-6.91,3.09-2.27.65-4.41.69-6.43.12-2.24-.61-3.9-1.74-4.98-3.38-1.07-1.65-1.66-3.61-1.76-5.89-.1-2.28.21-4.78.93-7.48.72-2.71,1.7-5.42,2.94-8.13,1.24-2.71,2.72-5.3,4.45-7.76,1.73-2.46,3.52-4.61,5.37-6.46,2.51-2.4,4.95-3.95,7.33-4.66,2.37-.71,4.36-.67,5.97.12,1.61.79,2.65,2.23,3.13,4.34.48,2.11.12,4.74-1.09,7.9-.81,1.91-1.87,3.8-3.16,5.67-1.3,1.87-2.74,3.54-4.32,5.02-1.58,1.47-3.25,2.66-5,3.57-1.75.91-3.44,1.34-5.08,1.3-.16.4-.3.92-.42,1.57-.12.65-.14,1.32-.07,2.01.07.69.23,1.35.48,1.98.25.63.65,1.05,1.2,1.26ZM277.29,139.21c1.5-.38,3.23-1.58,5.21-3.6,1.98-2.02,3.54-4.78,4.7-8.3.41-1.18.55-1.94.42-2.29-.13-.35-.41-.4-.86-.14-.44.26-1.03.77-1.76,1.56-.73.78-1.45,1.71-2.17,2.79-1.27,1.83-2.45,3.74-3.54,5.73-1.09,1.99-1.76,3.41-2,4.26Z"/>
  <path class="cls-5" d="M343.74,106.62c-.09.83-.36,2.21-.79,4.13-.44,1.92-.94,4.15-1.5,6.68-.56,2.53-1.22,5.21-1.96,8.03-.74,2.82-1.46,5.55-2.16,8.18,1.81-1.69,4.13-3.78,6.96-6.27,2.83-2.48,5.72-4.99,8.65-7.53.65-.55,1.34-.75,2.07-.6.73.15,1.32.5,1.78,1.05.46.56.69,1.22.7,2,.01.78-.31,1.48-.95,2.09-.91.81-2.08,1.88-3.49,3.22-1.42,1.34-2.94,2.74-4.56,4.22-1.62,1.48-3.27,2.98-4.96,4.51-1.69,1.53-3.23,2.92-4.62,4.17-1.4,1.26-2.59,2.37-3.59,3.34-1,.97-1.58,1.58-1.77,1.83-1.65,4.56-3.27,8.91-4.84,13.05-1.57,4.14-3.19,8.08-4.86,11.83-1.67,3.75-3.5,7.28-5.5,10.59-2,3.32-4.22,6.39-6.66,9.22-3.27,3.7-6.54,5.85-9.82,6.44-3.28.59-5.96.05-8.04-1.62-2.08-1.67-3.21-4.26-3.39-7.75-.18-3.49,1.16-7.46,4.01-11.92,2.45-3.72,5.37-7.41,8.76-11.05,3.39-3.65,6.67-6.94,9.84-9.89,3.17-2.94,5.91-5.41,8.23-7.41,2.31-1.99,3.63-3.2,3.93-3.62.63-1.65,1.26-3.5,1.91-5.53.64-2.03,1.25-4.07,1.81-6.12.57-2.05,1.11-4.03,1.62-5.93.52-1.9.93-3.5,1.24-4.81-2.18,4.05-4.69,8.13-7.52,12.25-2.84,4.12-5.88,7.84-9.13,11.17-1.15,1.15-2.37,2.25-3.65,3.3-1.28,1.05-2.6,1.98-3.95,2.79-1.36.81-2.7,1.43-4.04,1.86-1.34.43-2.66.53-3.96.29-1.81-.23-3.09-1.07-3.84-2.51-.74-1.44-1.05-3.24-.91-5.42.14-2.17.69-4.57,1.64-7.21.96-2.63,2.2-5.29,3.74-7.98,1.54-2.69,3.35-5.29,5.44-7.8,2.09-2.51,4.35-4.71,6.8-6.57,2.79-2.07,5.43-2.95,7.92-2.64,2.49.31,4.78,1.64,6.85,3.98.37-.5.86-1.32,1.5-2.46.64-1.14,1.3-2.35,1.98-3.65.69-1.29,1.36-2.57,2.01-3.82.65-1.25,1.23-2.21,1.71-2.88.61-.84,1.47-1.34,2.6-1.52,1.12-.18,2.21-.09,3.27.26,1.06.35,1.94.88,2.64,1.59.7.71.98,1.51.83,2.43ZM321.03,155.78c-1.42,1.34-2.91,2.79-4.48,4.37-1.57,1.58-3.15,3.2-4.74,4.86-1.59,1.66-3.1,3.28-4.51,4.88-1.42,1.59-2.69,3.04-3.82,4.33-2.48,3.06-4.16,5.71-5.03,7.96-.87,2.25-1.13,3.85-.8,4.8.34.95,1.18,1.13,2.53.55,1.35-.59,3.05-2.15,5.1-4.69,1.54-1.95,3.06-4.08,4.55-6.39,1.49-2.31,2.92-4.65,4.29-7.01,1.37-2.37,2.65-4.72,3.84-7.05,1.19-2.34,2.21-4.53,3.07-6.6ZM309.57,138.8c1.17-1.07,2.45-2.44,3.86-4.11,1.4-1.67,2.76-3.38,4.08-5.15,1.32-1.76,2.48-3.39,3.51-4.89,1.02-1.5,1.66-2.6,1.93-3.3.21-.55.01-.98-.59-1.3-.6-.31-1.53-.2-2.78.33-1.25.53-2.77,1.57-4.57,3.11-1.8,1.54-3.71,3.88-5.73,7.02-.49.67-1.03,1.55-1.64,2.65-.61,1.1-1.17,2.22-1.69,3.38-.52,1.16-.93,2.2-1.23,3.14-.3.94-.36,1.61-.18,2.03.18.42.64.44,1.4.06.76-.38,1.97-1.37,3.65-2.96Z"/>
  <path class="cls-5" d="M372.23,120.92c-1.72,2.27-3.65,5.04-5.81,8.31-2.15,3.27-4.42,6.4-6.8,9.41-2.38,3.01-4.88,5.49-7.5,7.46-2.62,1.97-5.29,2.76-8.02,2.37-1.82-.23-3.11-1.07-3.9-2.5-.78-1.43-1.13-3.21-1.06-5.34.07-2.12.56-4.48,1.44-7.06.89-2.59,2.05-5.2,3.49-7.83,1.44-2.63,3.14-5.14,5.09-7.53,1.96-2.38,4.06-4.46,6.3-6.22,2.63-2.12,5.24-3.05,7.84-2.79,2.6.26,4.96,1.52,7.1,3.77.43-.59.94-1.33,1.54-2.24.6-.91,1.21-1.86,1.83-2.85.62-.99,1.25-1.94,1.89-2.85.63-.91,1.2-1.64,1.72-2.16.81-.94,1.77-1.48,2.86-1.62,1.09-.13,2.06,0,2.9.43.84.42,1.47,1.12,1.89,2.09.41.97.38,2.09-.08,3.35-2.83,7.93-4.58,13.88-5.25,17.84-.67,3.96-.42,6.14.75,6.55,1.18.41,3.27-.89,6.28-3.88,3.01-2.99,6.79-7.44,11.35-13.35.56-.68,1.13-1.05,1.72-1.1.58-.05,1.07.11,1.47.49s.61.94.65,1.68c.04.74-.23,1.59-.82,2.57-5.54,9.03-10.35,15.21-14.42,18.56-4.07,3.35-7.78,4.47-11.14,3.37-2.11-.7-3.54-2.48-4.29-5.33-.75-2.85-.42-7.38.97-13.6ZM353.6,134.64c1.09-1.06,2.31-2.4,3.65-4.02,1.34-1.62,2.63-3.27,3.89-4.95,1.25-1.68,2.36-3.26,3.31-4.75.95-1.48,1.56-2.58,1.82-3.29.21-.55,0-.96-.64-1.23-.64-.27-1.56-.16-2.78.33-1.22.49-2.69,1.5-4.41,3.03-1.72,1.53-3.57,3.82-5.53,6.87-.42.66-.93,1.54-1.53,2.63-.61,1.1-1.14,2.18-1.6,3.25-.46,1.07-.82,2.07-1.08,3-.26.93-.31,1.59-.14,1.97.17.38.65.38,1.44,0,.79-.38,1.99-1.33,3.61-2.85Z"/>
  <path class="cls-5" d="M413.66,98.16c-2.31.88-4.64,2.33-6.99,4.32-2.35,2-4.33,4.28-5.93,6.83-1.6,2.55-2.62,5.23-3.07,8.04-.45,2.81.08,5.43,1.57,7.87.45-.44,1.29-1.11,2.52-2.01,1.23-.9,2.62-1.93,4.18-3.1,1.56-1.17,3.22-2.38,4.99-3.62,1.77-1.24,3.43-2.43,5-3.57,1.56-1.14,2.93-2.11,4.1-2.92,1.17-.81,1.95-1.36,2.35-1.65.74-.49,1.41-.57,2.02-.26.61.31,1.07.8,1.4,1.45.33.65.44,1.39.35,2.22-.09.83-.47,1.52-1.12,2.07-.98.82-2.44,1.92-4.37,3.3-1.93,1.38-4.01,2.89-6.23,4.54-2.22,1.65-4.39,3.29-6.51,4.92-2.12,1.63-3.85,3.11-5.19,4.43.57,1.24,1.1,2.63,1.6,4.14.5,1.52.81,3.15.94,4.91.13,1.76,0,3.6-.41,5.51-.4,1.92-1.22,3.9-2.45,5.94-2.24,3.69-4.61,6.47-7.13,8.35-2.52,1.88-4.91,3.03-7.18,3.47-2.27.43-4.27.19-6.01-.72-1.74-.91-2.94-2.33-3.62-4.26-.67-1.93-.7-4.32-.07-7.16.63-2.84,2.22-6.02,4.78-9.53,1.41-1.85,2.99-3.73,4.73-5.64,1.74-1.9,3.61-3.79,5.61-5.66-2.52-3.75-3.76-7.63-3.72-11.64.04-4.01.91-7.87,2.62-11.59,1.71-3.72,4.06-7.14,7.05-10.28,2.99-3.14,6.21-5.72,9.67-7.75,1.16-.63,2.3-.6,3.4.08,1.11.68,1.94,1.6,2.49,2.78.55,1.17.78,2.38.68,3.62-.1,1.24-.78,2.11-2.04,2.6ZM396.11,137.06c-1.29,1.24-2.86,2.93-4.7,5.08-1.85,2.14-3.3,4.3-4.37,6.47-1.73,3.61-2.11,5.76-1.15,6.46.96.7,2.54-.2,4.74-2.69,1.2-1.3,2.24-2.69,3.12-4.16.88-1.47,1.56-2.9,2.05-4.27.49-1.37.77-2.66.84-3.86.07-1.2-.11-2.21-.53-3.03Z"/>
  <path class="cls-5" d="M338.01,177.72c.37.27.93.33,1.67.18.74-.15,1.58-.44,2.53-.86.94-.42,1.94-.94,2.98-1.54,1.04-.61,2.06-1.25,3.06-1.92.99-.67,1.91-1.36,2.75-2.05.84-.69,1.55-1.31,2.12-1.85.2-.17.44-.2.71-.1.27.1.48.29.63.56.15.27.2.57.15.91-.05.34-.31.64-.78.91-.74.67-1.61,1.44-2.6,2.3-.99.86-2.06,1.7-3.18,2.53-1.13.83-2.3,1.6-3.51,2.33-1.21.73-2.4,1.32-3.56,1.79-1.16.47-2.28.78-3.36.91-1.08.14-2.06,0-2.93-.4-.98-.44-1.65-1.07-2.02-1.9-.37-.82-.5-1.76-.38-2.81.12-1.04.44-2.16.96-3.34.52-1.18,1.16-2.34,1.92-3.49.76-1.15,1.62-2.22,2.58-3.21.96-.99,1.93-1.85,2.91-2.55,1.31-.91,2.54-1.44,3.66-1.59,1.13-.15,2.03,0,2.7.48.67.47,1.04,1.21,1.11,2.2.07.99-.29,2.17-1.06,3.51-.51.81-1.12,1.59-1.85,2.35-.73.76-1.5,1.42-2.32,1.97-.83.56-1.67.98-2.53,1.26-.86.29-1.66.36-2.4.23-.1.17-.2.4-.3.68-.1.29-.16.59-.18.91-.02.32,0,.63.08.94.07.3.22.52.45.66ZM338.92,172.57c.71-.07,1.58-.49,2.63-1.26,1.04-.77,1.95-1.92,2.73-3.44.27-.51.39-.84.35-1.01-.03-.17-.16-.21-.38-.13-.22.08-.52.28-.91.58-.39.3-.78.67-1.19,1.11-.71.74-1.38,1.53-2.02,2.35-.64.83-1.04,1.42-1.21,1.79Z"/>
  <path class="cls-5" d="M361.1,163.67c-1.11.24-2.27.73-3.49,1.47-1.21.74-2.27,1.63-3.18,2.68-.91,1.04-1.57,2.19-1.97,3.44-.4,1.25-.35,2.48.15,3.69.24-.17.67-.41,1.29-.73.62-.32,1.33-.69,2.12-1.11.79-.42,1.63-.85,2.53-1.29.89-.44,1.73-.86,2.53-1.26.79-.4,1.48-.75,2.07-1.04.59-.29.99-.48,1.19-.58.37-.17.68-.16.94.03.25.19.43.44.53.76.1.32.1.67,0,1.04-.1.37-.32.66-.66.86-.51.3-1.25.7-2.22,1.19-.98.49-2.03,1.03-3.16,1.62-1.13.59-2.23,1.18-3.31,1.77-1.08.59-1.97,1.14-2.68,1.64.17.61.31,1.27.43,2,.12.73.14,1.49.08,2.3-.07.81-.26,1.63-.58,2.48-.32.84-.83,1.68-1.54,2.53-1.28,1.52-2.56,2.61-3.84,3.29-1.28.67-2.45,1.03-3.51,1.06-1.06.03-1.95-.22-2.68-.76-.72-.54-1.17-1.27-1.34-2.2-.17-.93,0-2.01.48-3.26.49-1.25,1.44-2.58,2.86-3.99.78-.74,1.63-1.48,2.55-2.22.93-.74,1.91-1.47,2.96-2.17-.88-1.89-1.16-3.74-.86-5.56.3-1.82.98-3.51,2.02-5.08,1.04-1.57,2.36-2.96,3.94-4.17,1.58-1.21,3.23-2.16,4.95-2.83.57-.2,1.09-.11,1.54.28.45.39.77.87.93,1.44.17.57.18,1.14.05,1.69-.14.56-.51.9-1.11,1.04ZM350.34,180.1c-.67.47-1.51,1.13-2.5,1.97-.99.84-1.81,1.72-2.45,2.63-1.04,1.52-1.37,2.47-.99,2.86.39.39,1.17.09,2.35-.88.64-.51,1.21-1.06,1.72-1.67.51-.61.92-1.2,1.24-1.79.32-.59.54-1.15.66-1.69.12-.54.11-1.01-.03-1.42Z"/>
  <path class="cls-5" d="M377.83,144.36c.44-.4.96-.51,1.57-.3s1.13.56,1.57,1.06c.44.51.71,1.07.81,1.69.1.62-.14,1.17-.71,1.64-.78.64-1.53,1.32-2.27,2.05-.74.73-1.47,1.47-2.17,2.25.67-.03,1.47-.05,2.38-.05s1.83.02,2.75.05c.93.03,1.81.08,2.65.15.84.07,1.55.15,2.12.25.44.14.7.43.78.88.08.45.03.91-.18,1.36-.2.45-.52.83-.96,1.11-.44.29-.94.35-1.52.18-.51-.13-1.2-.26-2.07-.38-.88-.12-1.81-.22-2.81-.3-.99-.08-2.01-.14-3.03-.18-1.03-.03-1.95-.03-2.75,0-1.52,1.95-2.91,3.99-4.17,6.09-1.26,2.11-2.4,4.19-3.41,6.24-1.01,2.06-1.89,4.04-2.63,5.94-.74,1.9-1.37,3.65-1.9,5.23-.52,1.58-.92,2.97-1.19,4.14-.27,1.18-.44,2.06-.51,2.63-.07.54-.4.94-1.01,1.21-.61.27-1.24.37-1.9.3-.66-.07-1.23-.3-1.72-.71-.49-.4-.63-1.01-.43-1.82.64-2.49,1.47-5.03,2.5-7.61,1.03-2.58,2.15-5.12,3.36-7.63,1.21-2.51,2.49-4.94,3.84-7.3,1.35-2.36,2.68-4.57,3.99-6.62-1.25.1-2.54.27-3.87.51-1.33.24-2.55.54-3.66.91-.47.24-.91.24-1.31,0-.4-.24-.7-.56-.88-.99-.18-.42-.22-.86-.1-1.31.12-.45.5-.77,1.14-.94,1.72-.47,3.49-.79,5.31-.96,1.82-.17,3.67-.3,5.56-.4,1.35-1.95,2.61-3.65,3.79-5.08,1.18-1.43,2.19-2.54,3.03-3.31Z"/>
  <path class="cls-5" d="M372.12,164.33c.34-.47.78-.67,1.34-.58.56.08,1.07.3,1.54.63.47.34.83.74,1.06,1.21.24.47.18.86-.15,1.16-.17.14-.46.55-.88,1.24-.42.69-.89,1.51-1.42,2.45-.52.94-1.04,1.93-1.54,2.96-.51,1.03-.91,1.95-1.21,2.78-.3.83-.46,1.47-.48,1.92-.02.45.21.56.68.33.57-.27,1.25-.77,2.05-1.52.79-.74,1.62-1.59,2.48-2.55.86-.96,1.73-2,2.6-3.11.88-1.11,1.69-2.17,2.45-3.18s1.42-1.94,2-2.78c.57-.84.99-1.48,1.26-1.92.34-.57.79-.85,1.36-.83.57.02,1.11.19,1.62.53.51.34.89.74,1.16,1.21.27.47.29.88.05,1.21-.1.14-.3.51-.61,1.11s-.63,1.32-.99,2.15c-.35.83-.71,1.71-1.06,2.65-.35.94-.62,1.81-.81,2.6-.19.79-.27,1.46-.25,2,.02.54.23.81.63.81.34,0,.85-.22,1.54-.66.69-.44,1.45-1.01,2.27-1.72.83-.71,1.69-1.48,2.6-2.33.91-.84,1.77-1.65,2.58-2.43.24-.24.5-.34.78-.3.29.03.53.15.73.35.2.2.31.47.33.81.02.34-.09.69-.33,1.06-.51.54-1.1,1.15-1.77,1.85-.67.69-1.41,1.41-2.2,2.15-.79.74-1.59,1.45-2.4,2.12-.81.67-1.61,1.26-2.4,1.77-.79.51-1.53.88-2.2,1.11-.67.24-1.26.27-1.77.1-1.31-.44-2.14-1.27-2.48-2.5-.34-1.23-.27-2.86.2-4.88-1.35,1.58-2.7,3.14-4.04,4.68-1.35,1.53-2.88,2.77-4.6,3.72-.84.47-1.64.71-2.4.71s-1.43-.15-2.02-.45c-.59-.3-1.06-.74-1.42-1.31-.35-.57-.55-1.23-.58-1.97-.03-.51.08-1.15.33-1.95.25-.79.58-1.65.99-2.58.4-.93.86-1.89,1.36-2.88.51-.99,1.01-1.95,1.52-2.86.51-.91.98-1.72,1.42-2.43.44-.71.79-1.26,1.06-1.67Z"/>
  <path class="cls-5" d="M402.4,170.75c-.64.84-1.36,1.78-2.15,2.81-.79,1.03-1.62,2.06-2.48,3.08-.86,1.03-1.75,2.01-2.68,2.96-.93.94-1.83,1.73-2.7,2.35-.88.62-1.72,1.05-2.53,1.29-.81.24-1.55.17-2.22-.2-.81-.44-1.28-1.14-1.42-2.12-.13-.98-.02-2.08.35-3.31.37-1.23.93-2.54,1.69-3.94.76-1.4,1.63-2.75,2.6-4.07.98-1.31,2.02-2.51,3.13-3.59,1.11-1.08,2.19-1.94,3.23-2.58.64-.4,1.29-.65,1.95-.73.66-.08,1.27-.05,1.85.1.57.15,1.09.4,1.57.76.47.35.83.75,1.06,1.19.27-.34.72-.95,1.34-1.84.62-.89,1.35-1.92,2.17-3.08.83-1.16,1.7-2.4,2.63-3.72.93-1.31,1.83-2.57,2.7-3.77.88-1.2,1.67-2.28,2.38-3.26.71-.98,1.26-1.7,1.67-2.17.34-.44.77-.61,1.29-.53.52.08.98.33,1.36.73.39.4.63.9.73,1.49.1.59-.1,1.15-.61,1.69-3.37,3.74-6.16,7.46-8.37,11.17-2.21,3.71-3.92,7.19-5.13,10.44-1.21,3.25-1.99,6.19-2.32,8.82-.34,2.63-.3,4.73.1,6.32.1.37-.05.72-.45,1.06-.4.34-.88.58-1.44.73-.56.15-1.1.17-1.62.05-.52-.12-.85-.43-.99-.94-.1-.37-.13-1.13-.08-2.27.05-1.15.2-2.52.45-4.12.25-1.6.62-3.34,1.11-5.23.49-1.89,1.09-3.74,1.79-5.56ZM401.14,167.51c.17-.24.16-.48-.03-.73-.19-.25-.51-.35-.99-.28-.64.07-1.36.45-2.17,1.14-.81.69-1.61,1.52-2.4,2.5-.79.98-1.55,2.03-2.27,3.16-.73,1.13-1.31,2.15-1.74,3.06-.44.91-.7,1.63-.78,2.15-.08.52.09.7.53.53.34-.13.78-.46,1.34-.99.56-.52,1.17-1.16,1.85-1.92.67-.76,1.37-1.57,2.1-2.45.72-.88,1.4-1.72,2.02-2.53.62-.81,1.16-1.54,1.62-2.2.45-.66.77-1.14.94-1.44Z"/>
  <path class="cls-5" d="M421.1,170.04c.24-.13.47-.15.71-.05.24.1.44.25.61.45.17.2.26.44.28.71.02.27-.08.51-.28.71-.37.34-.88.87-1.52,1.59-.64.73-1.38,1.5-2.22,2.32-.84.83-1.75,1.66-2.73,2.5-.98.84-1.99,1.56-3.03,2.15-1.04.59-2.08,1.01-3.11,1.26-1.03.25-2.01.19-2.96-.18-.98-.37-1.6-1.07-1.87-2.1-.27-1.03-.27-2.21,0-3.54.27-1.33.78-2.72,1.52-4.17.74-1.45,1.62-2.81,2.63-4.09.34-.44.79-.63,1.36-.58.57.05,1.09.23,1.54.53.45.3.78.7.99,1.19.2.49.12.97-.25,1.44-.88,1.15-1.58,2.2-2.1,3.16-.52.96-.88,1.79-1.09,2.48-.2.69-.28,1.25-.23,1.67.05.42.23.65.53.68.44.07,1.09-.12,1.95-.56.86-.44,1.81-1.04,2.86-1.82,1.04-.77,2.13-1.66,3.26-2.65,1.13-.99,2.18-2.03,3.16-3.11ZM418.47,160.79c-.24.3-.58.73-1.04,1.29-.45.56-.95,1.09-1.49,1.59-.54.51-1.07.91-1.59,1.21-.52.3-.95.35-1.29.15-.37-.24-.53-.66-.48-1.29.05-.62.2-1.3.45-2.02.25-.72.56-1.42.91-2.1.35-.67.65-1.18.88-1.52.34-.44.78-.64,1.34-.61.56.03,1.07.21,1.54.53.47.32.82.73,1.04,1.24.22.51.13,1.01-.28,1.52Z"/>
  <path class="cls-5" d="M430.3,172.11c-.1.71-.39,1.58-.86,2.63-.47,1.04-1.1,2.05-1.87,3.01-.78.96-1.71,1.76-2.81,2.4-1.1.64-2.35.91-3.77.81-.61-.03-1.21-.21-1.82-.53-.61-.32-1.13-.75-1.57-1.29-.44-.54-.77-1.17-1.01-1.9-.24-.72-.29-1.54-.15-2.45.24-1.62.7-3,1.39-4.14.69-1.14,1.44-2.11,2.25-2.88.4-.37.91-.48,1.52-.33.61.15,1.15.5,1.62,1.04-.88-1.18-1.29-2.27-1.24-3.29.05-1.01.36-1.84.94-2.48.57-.64,1.31-1.05,2.2-1.24.89-.18,1.77-.05,2.63.4.86.45,1.59,1.28,2.2,2.48.61,1.2.89,2.84.86,4.93.51.17,1.04.27,1.59.3.56.03,1.11.02,1.67-.05.56-.07,1.09-.16,1.59-.28.51-.12.94-.23,1.31-.33.3-.1.55-.05.73.15.18.2.3.45.35.76.05.3.03.61-.05.91-.08.3-.23.51-.43.61-1.45.64-2.82.98-4.12,1.01-1.3.03-2.35-.05-3.16-.25ZM423.83,169.38c.1.2.13.4.1.61-.03.2-.2.44-.51.71-.61.54-1.15,1.21-1.62,2-.47.79-.82,1.54-1.04,2.25-.22.71-.28,1.31-.18,1.79.1.49.44.72,1.01.68.51-.03,1.04-.29,1.59-.76.56-.47,1.07-1.02,1.54-1.64.47-.62.88-1.29,1.24-2,.35-.71.58-1.33.68-1.87-.44-.13-.94-.37-1.52-.71-.57-.34-1.01-.69-1.31-1.06ZM425.6,164.63c-.17.1-.26.3-.28.58-.02.29.04.61.18.96.13.35.34.7.61,1.04.27.34.61.61,1.01.81.03-.4.03-.83-.03-1.29-.05-.45-.14-.86-.28-1.21-.14-.35-.31-.62-.53-.81-.22-.18-.45-.21-.68-.08Z"/>
  <g id="fs2kgN">
    <g>
      <path class="cls-3" d="M180.79,212.71c2.45-.57,5-.86,7.43-1.55,11.61-3.33,16.56-8.8,17.41-20.79.1-1.42-.22-4.24.07-5.35.26-.98,2.66-4.64,3.32-6,5.69-11.84,11.31-29.14,7.21-42.12-1.48-4.68-4.82-8.34-7.95-11.94.04-4.68,1.62-9.19,1.95-13.85-2.19-3.77-5.41-6.97-7.91-10.47-4.35-6.1-4.44-14.55-8.28-21.05,4.27-4.23,5.33-10.89,4.07-16.61l-3.69,3.9c-.08-1.41.87-2.55,1.07-3.99.53-3.81-1.06-7.45-3.68-10.16-.23-.24-2.39-2.34-2.51-1.61.13,1.16.16,2.35-.03,3.51-.02.13-.14,1.75-.64,1.35-.55-4.33-3.49-6.54-7.12-8.3-26.76-12.89-72.25,1.1-91.31,22.64-11.28,12.75-10.59,22.88-9.58,38.98.49,7.87,1.39,15.7,2.16,23.55-.23.63-2.09.3-2.76.39-4.76.65-7.79,3.86-9.21,8.26-3.5,10.86,2.09,25.51,10.18,33.08,2.12,1.99,1.56,1.8,2.95,4.22,3.76,6.52,17.69,7.38,23.97,3.44M107.88,182.22c-.04-.29-.17-1.1.23-1.2,3.68,6.17,9.62,11.06,15.53,15.05,14.76,9.96,32.67,15.56,50.36,17.05"/>
      <path class="cls-2" d="M174.01,213.12c-17.69-1.48-35.61-7.09-50.36-17.05-5.91-3.99-14.76-10.29-15.76-13.85M107.88,182.22c-6.28,3.95-20.21,3.08-23.97-3.44-1.39-2.42-.82-2.23-2.95-4.22-8.09-7.57-13.67-22.22-10.18-33.08,1.42-4.4,4.44-7.62,9.21-8.26.67-.09,2.53.24,2.76-.39-.77-7.85-1.66-15.68-2.16-23.55-1.01-16.1-1.7-26.23,9.58-38.98,19.06-21.54,64.55-35.54,91.31-22.64,3.63,1.75,6.57,3.97,7.12,8.3.5.4.62-1.22.64-1.35.18-1.16.16-2.34.03-3.51.13-.73,2.28,1.37,2.51,1.61,2.62,2.72,4.21,6.35,3.68,10.16-.2,1.44-1.15,2.59-1.07,3.99l3.69-3.9c1.26,5.73.21,12.38-4.07,16.61,3.84,6.5,3.93,14.96,8.28,21.05,2.5,3.5,5.72,6.7,7.91,10.47-.32,4.66-1.91,9.17-1.95,13.85,3.13,3.6,6.48,7.26,7.95,11.94,4.1,12.99-1.51,30.29-7.21,42.12-.66,1.36-3.06,5.03-3.32,6-.29,1.11.03,3.92-.07,5.35-.84,11.99-5.8,17.46-17.41,20.79-2.43.7-4.98.98-7.43,1.55-.47.38-3.05.48-6.79.42M110.54,107.89c.6-.26,1.18.68.98,1.04-.04.07-.49.05-.61.22-.42.55-.38.63-.99,1.26-.34.36-.09,1.36-1.37.49l-.23.69.54.13c-.13.6-1.17.51-1.32.73-.15.21-.17.55-.74,1.3-.22.29-.2.76-.49.94-.51.32-2.29.38-2.46.64-.07.11.1.51,0,.72-.16.35-.68.34-.75.47-.12.21.25.83.18.94s-.79.04-.93.25c-.08.11.09.51,0,.72-.07.15-1.49,2.41-1.59,2.53-.33.4-1,0-.47,1.26l-1.21.27c-.57-.93.71-1.06.73-1.33l-.2-.83c-1.33-.34-1.98,1.43-2.13,1.51-.37.19-1.34.15-1.49.37-.07.1.1.5,0,.72-.14.31-.58.31-.7.49-.13.2.07.82-.23,1-.76.45-.96-.64-1.49-.93-.71-.21.24,1.22-.69,1.43-.99.22-.45-1.69-1.85-.86l.22.97-3.15.72.18.94c-1.41.5-.8.76-.91,1.01-.21.5-1.04.65-.49,1.64l.69-.13.25.94-.97.22.58,3.68.94-.18c.2,1.05.96.69,1.46.98,1.58.94,5.47,3.17,6.38,4.53.43.63.89,1.84,1.17,2.58-.3.53-7.19-3.3-7.98-3.63-4.63-1.98-10.37-3.51-13.84,1.22-6.35,8.66.24,25.73,7.6,32.13.49.43,1.82.99,2.07,1.33.42.58.76,2.01,1.29,2.89,3.15,5.27,12.53,6.82,16.75,2.01,3.3-3.77,1.76-7.48.64-11.85-.3-1.17-.95-2.22-1.08-3.57-.04-.45-.17-.38.4-.47,3.6,10.22,8.72,20.47,17.34,27.34,5.1,4.07,11.03,6.03,17.14,8.04,2.98.98,8.64,3.05,11.48,3.52.45.08.9.21,1.33-.05.37-1.46,1.42-6.44,2.94-6.78.65-.15,7.39,2.16,8.84,2.48,5.71,1.24,11.15,1.8,15.16-3.34,2.21-2.83,2.14-6.18,1.88-9.6l.43-.36,8.63-1.67c1.39,3.23,2.52,6.87,6.02,8.4,4.73,2.06,7.09-3.95,8.81-7.12,7.48-13.76,14.73-36.92,5.75-51.33-.94-1.51-3.98-4.72-4.32-6.02-.79-2.97,1.65-8.45,1.33-11.63-7.52-6.32-16.13-2.2-24.58-.52-3.58-.63-.01-8.24,1.44-9.46,1.21-1.02,6.32-.81,8.04-.66,2.94.25,5.85,1.03,8.49,2.34l4.78,3.11c-1.73-3.25-4.88-5.88-6.59-9.14-4.34-8.27-4.8-22.7-14.76-26.99-3.11-1.34-9.68.46-13.03.93-10.27,1.46-19.23-.74-29.25.34-8.18.88-24.73,5.18-31.23,10.18-4.64,3.57-2.22,11.44-.77,16.31.31,1.04,2.68,6.45,2.54,6.89-.04.13-.77.5-.56.68Z"/>
      <path class="cls-4" d="M108.56,100.32c-1.45-4.87-3.86-12.74.77-16.31,6.5-5,23.05-9.3,31.23-10.18,10.02-1.08,18.98,1.12,29.25-.34,3.34-.47,9.91-2.27,13.03-.93,9.97,4.29,10.42,18.72,14.76,26.99,1.71,3.26,4.87,5.89,6.59,9.14l-4.78-3.11c-2.64-1.3-5.55-2.09-8.49-2.34-1.72-.14-6.83-.35-8.04.66-1.45,1.22-5.01,8.83-1.44,9.46,8.45-1.68,17.06-5.8,24.58.52.32,3.18-2.12,8.66-1.33,11.63.34,1.3,3.38,4.51,4.32,6.02,8.98,14.41,1.73,37.58-5.75,51.33-1.72,3.17-4.09,9.18-8.81,7.12-3.5-1.53-4.63-5.17-6.02-8.4l-8.63,1.67-.43.36c.26,3.42.33,6.77-1.88,9.6-4.01,5.14-9.45,4.58-15.16,3.34-1.44-.31-8.19-2.62-8.84-2.48-1.52.34-2.57,5.32-2.94,6.78-.43.26-.88.13-1.33.05-2.83-.47-8.49-2.54-11.48-3.52-6.11-2.01-12.04-3.97-17.14-8.04-8.62-6.88-13.74-17.12-17.34-27.34-.57.09-.45.02-.4.47.13,1.35.78,2.4,1.08,3.57,1.12,4.37,2.67,8.09-.64,11.85-4.22,4.81-13.6,3.26-16.75-2.01-.53-.88-.87-2.32-1.29-2.89-.25-.34-1.57-.91-2.07-1.33-7.36-6.4-13.96-23.46-7.6-32.13,3.47-4.73,9.22-3.19,13.84-1.22.79.34,7.68,4.16,7.98,3.63-.28-.74-.75-1.95-1.17-2.58-.91-1.35-4.8-3.59-6.38-4.53-.5-.29-1.26.07-1.46-.98l-.94.18-.58-3.68.97-.22-.25-.94-.69.13c-.55-.98.28-1.13.49-1.64.11-.25-.5-.51.91-1.01l-.18-.94,3.15-.72-.22-.97c1.4-.84.86,1.08,1.85.86.93-.21-.02-1.64.69-1.43.53.29.73,1.38,1.49.93.3-.18.09-.8.23-1,.12-.18.56-.18.7-.49.1-.21-.07-.61,0-.72.14-.22,1.11-.19,1.49-.37.15-.07.8-1.85,2.13-1.51l.2.83c-.02.27-1.3.4-.73,1.33l1.21-.27c-.53-1.25.14-.86.47-1.26.1-.13,1.52-2.38,1.59-2.53.1-.21-.07-.61,0-.72.14-.2.86-.14.93-.25s-.3-.73-.18-.94c.07-.13.59-.12.75-.47.1-.21-.07-.61,0-.72.17-.26,1.94-.31,2.46-.64.29-.18.27-.65.49-.94.57-.75.59-1.09.74-1.3.15-.22,1.2-.12,1.32-.73l-.54-.13.23-.69c1.28.88,1.03-.13,1.37-.49.6-.64.57-.71.99-1.26.13-.17.58-.15.61-.22.2-.36-.38-1.3-.98-1.04-.21-.18.52-.55.56-.68.14-.43-2.23-5.85-2.54-6.89ZM129.3,111.28c9.21-3.32,15.31-.98,24.28.22,3.09.42,5.31,1.34,6.08-2.5,1.28-6.43-5.37-6.88-9.99-7.11-14.53-.71-25.86,1.72-33.21,15.21-.22.41-1.64,3.01-1.29,3.23,4.43-3.43,8.77-7.11,14.14-9.05ZM147.36,130.52c.25-2.45-.81-4.61-2.09-6.6,3.93-.42,10.04-.3,11.85,3.92,1.43-.85.58-3.63-.21-4.79-1.33-1.96-5.48-2.96-7.74-3.19-8.65-.89-19.2,2.6-25.79,8.25-1.04.89-3.86,3.09-2.39,4.49s6.91-1.65,8.31-2.74l1.24,4.3c-.12.21-4.75-.37-3.78,1.24.26.43,5.9.29,6.88.27,4.07-.08,8.95-.28,12.91-1.07,1.04-.21,3.52-.66,4.24-1.29s.1-1.24-.45-1.11l-3.51.8c-.12-.86.45-1.62.54-2.46ZM195.92,143.82c-.85-6.78-7.78-9.24-12.1-13.45-.26-.25-.58-.45-.6-.86,5.5.23,11.29,3.05,16.47-.22l-.19-.95c-2.2.55-4.37,1.08-6.65,1-.3-.76.38-1.3.56-2.03.67-2.61.21-4.51-1.28-6.72,3.55.3,6.97,2.62,7.09,6.53,4.15-1.44,3.91-4.71,1.13-7.57-4.21-4.32-12.87-3.86-17.97-1.46-1.45.68-2.62,1.78-3.99,2.57-.42-.84.15-1.77.19-2.47.08-1.25-1.42.87-1.6,1.28-1.98,4.75,3.07,10.57,6.33,13.65,4.74,4.47,12.46,7.11,7.19,14.97-1.64,2.44-4.18,4.49-6.87,5.63l.32.82c1.34-.44,3.07-.51,4.36-.99,3.33-1.25,8.08-5.92,7.6-9.74ZM80.11,156.48c-.29-2.5-2.42-11.13,1.41-11.79,2.7-.46,8.3,3.46,9.69,5.8-5.7,1.59-7.47,10.95-3.04,14.58,2.01,1.64,3.28.26,5.47.54,1.74.23,4.78,3.29,5.89,1.52,1-1.59-2.39-3.27-3.27-4.37-1.4-1.75-1.72-3.44-1.2-5.6.51-2.13,2.02-3.03.9-5.47-1.64-3.56-8.71-9.5-12.59-10.32-9.34-1.97-5.62,11.5-3.56,16.05.42-.19.34-.58.3-.95ZM144.87,140.99c.21.8.92,1.64,1.79,1.64,3.65,0,2.86-4.13.06-3.72-1.02.15-1.75,1.1-1.85,2.08ZM159.34,144.89c-3.12,4.42.52,10.01,5.35,10.97.47.09,3.58.67,3.03-.52-1.98-.86-4.09-1.4-5.39-3.31-1.23-1.8-1.94-4.99-.63-6.91.6-.87,2.93-1.86,1.41-2.57-1.65.07-2.85,1.05-3.76,2.34ZM167.43,152.6c.32,1.42,2.34.27,3.14.17.69-.09,1.48-.13,2.17-.15,2.3-.07,5.45,1.29,6.81-1.03.14-1.35-1.53-1.67-2.51-1.85-1.6-.3-3.87-.23-5.46.08-1.08.22-4.52,1.23-4.16,2.79ZM144.94,158.25c-7.06-1.12-11.24,5.36-7.25,11.19l.06-4.73c.21-1.34.64-2.78,1.7-3.7.37-.33,1.99-1.33,2.36-1.42l3.75-.86c-.04-.64-.19-.41-.62-.48ZM143.58,169.62c.75-1.19,1-.66,2.07-.96.48-.14.85-.51,1.39-.58.68-.09,3.86,1.75,4.89,2.15,10.89,4.25,23.45.28,34.51-1.45,2.79-.44,8.67-.42,10.89-1.66,2.22-1.25,2.81-4.8,5.74-5.14l1.72,2.36c.59-1.6.39-3.77-.73-5.1-1.48-1.75-4.26-1.4-6.26-1.91-2.3-.59-4.34-2.03-6.82-2.35-1.87-.24-7.33.33-8.31,2-.85,1.45,1.36,3.98,2.8,4.44,3.54,1.13,9.21.14,12.91-.08.47.26.36.34.17.74-.18.37-1.83,2.17-2.2,2.35-1.51.72-3.56.32-5.21.51-9.56,1.09-19.38,4.06-28.99,4.21-3.6.06-8.03-.36-11.15-2.22,3.1-.97,6.38-.83,9.57-1.2,5.6-.64,13.38-1.34,18.6-3.19,1.07-.38,1.41-1.05,1.54-2.14.25-2.13-.63-3.17-2.66-3.67-1.91-.48-9.51.08-11.56.54-2.53.57-5.4,2.12-7.98,2.86-4.65,1.33-9.63,1.2-13.86,3.73-3.18,1.9-3.05,4.23-2.04,7.53.41.33.81-1.48.99-1.76ZM175.88,179.95c3.95.43,11.33-.33,14.54-2.67.38-.27.98-.64.92-1.1-.25-1.79-1.5-.57-2.51-.31-2.58.67-5.64,1.43-8.25,1.88-1.09.19-7,.5-7.23,1.15-.31.88,1.9.98,2.53,1.05Z"/>
      <path class="cls-2" d="M142.59,171.38c.41.33.81-1.48.99-1.76.75-1.19,1-.66,2.07-.96.48-.14.85-.51,1.39-.58.68-.09,3.86,1.75,4.89,2.15,10.89,4.25,23.45.28,34.51-1.45,2.79-.44,8.67-.42,10.89-1.66,2.22-1.25,2.81-4.8,5.74-5.14l1.72,2.36c.59-1.6.39-3.77-.73-5.1-1.48-1.75-4.26-1.4-6.26-1.91-2.3-.59-4.34-2.03-6.82-2.35-1.87-.24-7.33.33-8.31,2-.85,1.45,1.36,3.98,2.8,4.44,3.54,1.13,9.21.14,12.91-.08.47.26.36.34.17.74-.18.37-1.83,2.17-2.2,2.35-1.51.72-3.56.32-5.21.51-9.56,1.09-19.38,4.06-28.99,4.21-3.6.06-8.03-.36-11.15-2.22,3.1-.97,6.38-.83,9.57-1.2,5.6-.64,13.38-1.34,18.6-3.19,1.07-.38,1.41-1.05,1.54-2.14.25-2.13-.63-3.17-2.66-3.67-1.91-.48-9.51.08-11.56.54-2.53.57-5.4,2.12-7.98,2.86-4.65,1.33-9.63,1.2-13.86,3.73-3.18,1.9-3.05,4.23-2.04,7.53Z"/>
      <path class="cls-2" d="M183.96,154.56l-.32-.82c2.7-1.15,5.24-3.2,6.87-5.63,5.27-7.86-2.45-10.5-7.19-14.97-3.26-3.07-8.31-8.89-6.33-13.65.17-.41,1.67-2.53,1.6-1.28-.04.71-.61,1.63-.19,2.47,1.37-.79,2.54-1.89,3.99-2.57,5.1-2.4,13.76-2.85,17.97,1.46,2.79,2.86,3.03,6.12-1.13,7.57-.12-3.91-3.54-6.23-7.09-6.53,1.49,2.21,1.96,4.11,1.28,6.72-.19.72-.86,1.27-.56,2.03,2.28.07,4.44-.46,6.65-1l.19.95c-5.18,3.27-10.98.45-16.47.22.02.41.34.61.6.86,4.32,4.21,11.25,6.67,12.1,13.45.48,3.82-4.26,8.49-7.6,9.74-1.29.48-3.01.55-4.36.99ZM185.52,123.41c2.34-.67-.39-3.72-1.52-1.91-.57.92.17,2.3,1.52,1.91Z"/>
      <path class="cls-2" d="M150.33,132.18c.56-.13,1.17.5.45,1.11s-3.2,1.08-4.24,1.29c-3.96.79-8.84.99-12.91,1.07-.98.02-6.62.16-6.88-.27-.97-1.61,3.66-1.03,3.78-1.24l-1.24-4.3c-1.4,1.09-6.84,4.15-8.31,2.74s1.35-3.6,2.39-4.49c6.59-5.65,17.13-9.13,25.79-8.25,2.26.23,6.41,1.23,7.74,3.19.78,1.16,1.63,3.94.21,4.79-1.8-4.22-7.91-4.34-11.85-3.92,1.28,2,2.35,4.16,2.09,6.6-.09.84-.66,1.6-.54,2.46l3.51-.8ZM139.72,126.33c-.26-1.4-2.05-1.38-2.61-.5-1.3,2.05,3.05,2.89,2.61.5Z"/>
      <path class="cls-2" d="M115.16,120.33c4.43-3.43,8.77-7.11,14.14-9.05,9.21-3.32,15.31-.98,24.28.22,3.09.42,5.31,1.34,6.08-2.5,1.28-6.43-5.37-6.88-9.99-7.11-14.53-.71-25.86,1.72-33.21,15.21-.22.41-1.64,3.01-1.29,3.23Z"/>
      <path class="cls-2" d="M79.81,157.43c.42-.19.34-.58.3-.95-.29-2.5-2.42-11.13,1.41-11.79,2.7-.46,8.3,3.46,9.69,5.8-5.7,1.59-7.47,10.95-3.04,14.58,2.01,1.64,3.28.26,5.47.54,1.74.23,4.78,3.29,5.89,1.52,1-1.59-2.39-3.27-3.27-4.37-1.4-1.75-1.72-3.44-1.2-5.6.51-2.13,2.02-3.03.9-5.47-1.64-3.56-8.71-9.5-12.59-10.32-9.34-1.97-5.62,11.5-3.56,16.05Z"/>
      <path class="cls-2" d="M163.1,142.55c-1.65.07-2.85,1.05-3.76,2.34-3.12,4.42.52,10.01,5.35,10.97.47.09,3.58.67,3.03-.52-1.98-.86-4.09-1.4-5.39-3.31-1.23-1.8-1.94-4.99-.63-6.91.6-.87,2.93-1.86,1.41-2.57Z"/>
      <path class="cls-2" d="M173.36,178.9c-.31.88,1.9.98,2.53,1.05,3.95.43,11.33-.33,14.54-2.67.38-.27.98-.64.92-1.1-.25-1.79-1.5-.57-2.51-.31-2.58.67-5.64,1.43-8.25,1.88-1.09.19-7,.5-7.23,1.15Z"/>
      <path class="cls-2" d="M171.59,149.81c-1.08.22-4.52,1.23-4.16,2.79.32,1.42,2.34.27,3.14.17.69-.09,1.48-.13,2.17-.15,2.3-.07,5.45,1.29,6.81-1.03.14-1.35-1.53-1.67-2.51-1.85-1.6-.3-3.87-.23-5.46.08Z"/>
      <path class="cls-2" d="M145.56,158.73c-.04-.64-.19-.41-.62-.48-7.06-1.12-11.24,5.36-7.25,11.19l.06-4.73c.21-1.34.64-2.78,1.7-3.7.37-.33,1.99-1.33,2.36-1.42l3.75-.86Z"/>
      <path class="cls-2" d="M146.71,138.91c-1.02.15-1.75,1.1-1.85,2.08.21.8.92,1.64,1.79,1.64,3.65,0,2.86-4.13.06-3.72Z"/>
      <path class="cls-3" d="M184,121.51c-.57.92.17,2.3,1.52,1.91,2.34-.67-.39-3.72-1.52-1.91Z"/>
      <path class="cls-3" d="M137.11,125.83c-1.3,2.05,3.05,2.89,2.61.5-.26-1.4-2.05-1.38-2.61-.5Z"/>
    </g>
  </g>
  <path class="cls-1" d="M107.17,96.07s2.04,7.09,2.68,7.7,1.64,5.31,1.64,5.31c0,0-10.36,8.65-10.86,16.73-.38,6.2,4.39,19.27,4.39,19.27l-4.93,4.05s-.53-1.96-3.29-6.97c-3.49-6.35-10.32-7.71-10.32-7.71l-4.23-27.11,24.92-11.28Z"/>
</svg>