<?xml version="1.0" encoding="UTF-8"?>
<svg id="Capa_1" data-name="Capa 1" xmlns="http://www.w3.org/2000/svg" viewBox="0 0 163.19 165.94">
  <defs>
    <style>
      .cls-1, .cls-2 {
        fill: #1a2722;
      }

      .cls-3 {
        fill: #fff;
      }

      .cls-3, .cls-4, .cls-2 {
        stroke: #dfe1d6;
        stroke-miterlimit: 10;
      }

      .cls-4 {
        fill: #dfe1d6;
      }
    </style>
  </defs>
  <g id="fs2kgN">
    <g>
      <path class="cls-3" d="M114.02,157.04c2.14-.5,4.37-.75,6.49-1.36,10.14-2.91,14.47-7.69,15.21-18.16.09-1.24-.19-3.7.06-4.67.23-.85,2.33-4.05,2.9-5.24,4.98-10.34,9.88-25.46,6.3-36.81-1.29-4.09-4.21-7.29-6.95-10.43.04-4.09,1.42-8.03,1.7-12.1-1.91-3.3-4.73-6.09-6.91-9.15-3.8-5.33-3.88-12.72-7.24-18.39,3.73-3.69,4.66-9.51,3.55-14.51l-3.23,3.4c-.07-1.23.76-2.23.93-3.49.46-3.33-.93-6.51-3.22-8.88-.2-.21-2.08-2.05-2.19-1.41.12,1.02.14,2.05-.03,3.06-.02.12-.13,1.53-.56,1.18-.48-3.78-3.05-5.72-6.23-7.25-23.38-11.27-63.13.96-79.78,19.78-9.85,11.14-9.26,19.99-8.37,34.06.43,6.87,1.21,13.72,1.89,20.57-.2.55-1.83.26-2.41.34-4.16.56-6.8,3.37-8.04,7.22-3.06,9.49,1.83,22.29,8.89,28.9,1.86,1.74,1.36,1.57,2.58,3.69,3.28,5.7,15.45,6.45,20.94,3M50.31,130.41c-.04-.25-.15-.96.21-1.05,3.22,5.39,8.41,9.67,13.57,13.15,12.89,8.7,28.54,13.6,44.01,14.89"/>
      <path class="cls-2" d="M108.09,157.4c-15.46-1.29-31.11-6.19-44.01-14.89-5.16-3.48-12.89-8.99-13.77-12.11M50.31,130.41c-5.49,3.45-17.66,2.69-20.94-3-1.22-2.11-.72-1.95-2.58-3.69-7.07-6.62-11.95-19.41-8.89-28.9,1.24-3.85,3.88-6.66,8.04-7.22.58-.08,2.21.21,2.41-.34-.67-6.85-1.45-13.7-1.89-20.57-.88-14.06-1.48-22.92,8.37-34.06C51.5,13.8,91.25,1.57,114.62,12.84c3.17,1.53,5.74,3.47,6.23,7.25.44.35.54-1.07.56-1.18.16-1.01.14-2.05.03-3.06.11-.64,1.99,1.2,2.19,1.41,2.29,2.37,3.68,5.54,3.22,8.88-.17,1.26-1,2.26-.93,3.49l3.23-3.4c1.1,5,.18,10.82-3.55,14.51,3.36,5.68,3.43,13.07,7.24,18.39,2.18,3.06,5,5.85,6.91,9.15-.28,4.07-1.67,8.01-1.7,12.1,2.74,3.14,5.66,6.34,6.95,10.43,3.58,11.35-1.32,26.46-6.3,36.81-.57,1.19-2.67,4.39-2.9,5.24-.26.97.02,3.43-.06,4.67-.74,10.47-5.07,15.26-15.21,18.16-2.12.61-4.35.86-6.49,1.36-.41.33-2.67.42-5.93.36M52.64,65.46c.53-.23,1.03.59.86.91-.03.06-.43.05-.54.19-.36.48-.34.55-.86,1.1-.29.31-.08,1.19-1.2.43l-.2.6.48.11c-.11.53-1.02.44-1.16.63-.13.18-.15.48-.64,1.13-.19.25-.17.66-.43.82-.45.28-2,.33-2.15.56-.06.1.09.45,0,.63-.14.3-.59.3-.66.41-.11.19.22.73.16.82s-.69.04-.81.21c-.07.1.08.44,0,.63-.06.13-1.3,2.1-1.39,2.21-.29.35-.88,0-.41,1.1l-1.06.24c-.5-.81.62-.92.64-1.16l-.18-.72c-1.16-.3-1.73,1.25-1.86,1.32-.32.16-1.17.13-1.3.33-.06.09.09.44,0,.63-.13.27-.51.27-.62.43-.12.17.06.72-.2.87-.66.4-.84-.56-1.3-.81-.62-.18.21,1.07-.6,1.25-.86.19-.39-1.48-1.62-.75l.19.85-2.75.62.16.82c-1.23.43-.7.66-.79.88-.19.44-.91.57-.43,1.43l.61-.11.22.82-.85.2.51,3.22.83-.16c.17.92.84.6,1.27.86,1.38.82,4.78,2.77,5.57,3.96.37.55.78,1.61,1.02,2.26-.26.46-6.29-2.88-6.97-3.17-4.04-1.73-9.06-3.06-12.09,1.06-5.55,7.57.21,22.48,6.64,28.07.43.37,1.59.86,1.8,1.16.37.5.67,1.76,1.13,2.53,2.76,4.6,10.95,5.96,14.64,1.76,2.89-3.29,1.54-6.53.56-10.36-.26-1.02-.83-1.94-.94-3.12-.04-.39-.15-.33.35-.41,3.15,8.93,7.62,17.88,15.15,23.89,4.45,3.55,9.63,5.27,14.97,7.02,2.61.86,7.55,2.66,10.03,3.07.39.07.79.18,1.16-.05.32-1.27,1.24-5.63,2.57-5.92.57-.13,6.46,1.89,7.72,2.16,4.98,1.08,9.74,1.57,13.24-2.92,1.93-2.48,1.87-5.4,1.65-8.39l.38-.31,7.54-1.46c1.22,2.82,2.2,6.01,5.26,7.34,4.13,1.8,6.19-3.45,7.7-6.22,6.54-12.02,12.87-32.26,5.02-44.85-.82-1.32-3.47-4.13-3.77-5.26-.69-2.59,1.44-7.38,1.16-10.16-6.57-5.52-14.1-1.92-21.47-.45-3.13-.55-.01-7.2,1.25-8.26,1.05-.89,5.52-.71,7.02-.58,2.57.22,5.11.9,7.41,2.04l4.18,2.72c-1.51-2.84-4.26-5.13-5.76-7.98-3.79-7.22-4.19-19.83-12.9-23.58-2.72-1.17-8.46.4-11.38.81-8.97,1.27-16.8-.65-25.56.3-7.15.77-21.61,4.53-27.29,8.9-4.05,3.12-1.94,10-.67,14.25.27.91,2.34,5.64,2.22,6.02-.04.11-.67.44-.49.59Z"/>
      <path class="cls-4" d="M50.91,58.84c-1.27-4.25-3.38-11.13.67-14.25,5.68-4.37,20.14-8.13,27.29-8.9,8.75-.94,16.59.98,25.56-.3,2.92-.41,8.66-1.98,11.38-.81,8.71,3.75,9.1,16.36,12.9,23.58,1.5,2.85,4.25,5.14,5.76,7.98l-4.18-2.72c-2.3-1.14-4.85-1.83-7.41-2.04-1.5-.13-5.97-.31-7.02.58-1.27,1.07-4.38,7.71-1.25,8.26,7.38-1.47,14.91-5.07,21.47.45.28,2.78-1.85,7.57-1.16,10.16.3,1.14,2.95,3.94,3.77,5.26,7.85,12.59,1.51,32.83-5.02,44.85-1.51,2.77-3.57,8.03-7.7,6.22-3.06-1.34-4.04-4.52-5.26-7.34l-7.54,1.46-.38.31c.23,2.99.28,5.91-1.65,8.39-3.5,4.49-8.26,4-13.24,2.92-1.26-.27-7.15-2.29-7.72-2.16-1.33.3-2.25,4.65-2.57,5.92-.38.23-.77.11-1.16.05-2.48-.41-7.42-2.22-10.03-3.07-5.34-1.75-10.52-3.47-14.97-7.02-7.53-6.01-12-14.96-15.15-23.89-.5.08-.39.01-.35.41.12,1.18.68,2.09.94,3.12.98,3.82,2.33,7.07-.56,10.36-3.69,4.2-11.88,2.85-14.64-1.76-.46-.77-.76-2.02-1.13-2.53-.22-.3-1.38-.79-1.8-1.16-6.43-5.59-12.19-20.5-6.64-28.07,3.03-4.13,8.05-2.79,12.09-1.06.69.29,6.71,3.63,6.97,3.17-.25-.65-.65-1.71-1.02-2.26-.8-1.18-4.19-3.14-5.57-3.96-.43-.26-1.1.06-1.27-.86l-.83.16-.51-3.22.85-.2-.22-.82-.61.11c-.48-.86.24-.99.43-1.43.09-.22-.44-.44.79-.88l-.16-.82,2.75-.62-.19-.85c1.23-.73.75.94,1.62.75.81-.18-.02-1.43.6-1.25.46.25.64,1.21,1.3.81.26-.16.08-.7.2-.87.11-.16.49-.16.62-.43.09-.19-.06-.54,0-.63.12-.19.97-.16,1.3-.33.13-.06.7-1.61,1.86-1.32l.18.72c-.01.24-1.14.35-.64,1.16l1.06-.24c-.47-1.09.12-.75.41-1.1.09-.11,1.33-2.08,1.39-2.21.08-.19-.06-.53,0-.63.12-.18.75-.12.81-.21s-.26-.64-.16-.82c.06-.11.51-.1.66-.41.08-.18-.06-.53,0-.63.14-.22,1.7-.27,2.15-.56.25-.16.23-.57.43-.82.5-.65.52-.95.64-1.13.13-.19,1.04-.11,1.16-.63l-.48-.11.2-.6c1.12.77.9-.11,1.2-.43.52-.56.5-.62.86-1.1.11-.15.5-.13.54-.19.17-.31-.33-1.14-.86-.91-.19-.16.45-.48.49-.59.12-.38-1.95-5.11-2.22-6.02ZM69.03,68.42c8.04-2.9,13.38-.86,21.21.2,2.7.36,4.64,1.17,5.31-2.19,1.12-5.61-4.69-6.01-8.73-6.21-12.7-.62-22.59,1.5-29.02,13.29-.2.36-1.43,2.63-1.13,2.82,3.87-3,7.67-6.21,12.36-7.91ZM84.81,85.23c.22-2.14-.71-4.02-1.83-5.77,3.44-.37,8.78-.26,10.35,3.42,1.25-.74.5-3.17-.18-4.18-1.16-1.71-4.78-2.59-6.76-2.79-7.56-.78-16.77,2.27-22.53,7.21-.91.78-3.37,2.7-2.09,3.93,1.28,1.22,6.04-1.44,7.26-2.4l1.08,3.76c-.11.18-4.15-.33-3.31,1.08.23.38,5.16.25,6.01.23,3.55-.07,7.82-.24,11.28-.94.91-.18,3.07-.58,3.71-1.13s.09-1.08-.39-.97l-3.07.7c-.11-.75.39-1.42.47-2.15ZM127.24,96.85c-.74-5.92-6.8-8.07-10.57-11.75-.23-.22-.51-.39-.52-.75,4.8.2,9.87,2.66,14.39-.19l-.16-.83c-1.93.48-3.82.94-5.81.88-.26-.66.33-1.14.49-1.77.59-2.28.18-3.94-1.12-5.87,3.1.27,6.09,2.29,6.2,5.71,3.63-1.26,3.42-4.11.98-6.61-3.68-3.77-11.24-3.37-15.7-1.28-1.27.6-2.29,1.55-3.49,2.25-.37-.73.13-1.54.17-2.16.07-1.09-1.24.76-1.39,1.12-1.73,4.15,2.68,9.24,5.53,11.92,4.14,3.9,10.89,6.21,6.28,13.08-1.43,2.13-3.65,3.92-6.01,4.92l.28.72c1.17-.39,2.68-.45,3.81-.87,2.91-1.09,7.06-5.17,6.64-8.51ZM26.06,107.91c-.25-2.18-2.11-9.73,1.23-10.3,2.36-.4,7.26,3.02,8.47,5.07-4.98,1.39-6.53,9.57-2.66,12.74,1.75,1.44,2.87.23,4.78.48,1.52.2,4.18,2.87,5.15,1.32.88-1.39-2.09-2.85-2.86-3.82-1.23-1.53-1.5-3.01-1.05-4.89.45-1.86,1.77-2.65.79-4.78-1.43-3.11-7.61-8.3-11-9.02-8.16-1.72-4.91,10.04-3.11,14.03.36-.17.3-.51.26-.83ZM82.64,94.38c.18.7.8,1.44,1.56,1.44,3.19,0,2.5-3.6.05-3.25-.89.13-1.53.96-1.61,1.82ZM95.28,97.79c-2.73,3.86.45,8.75,4.67,9.59.41.08,3.13.59,2.64-.46-1.73-.75-3.57-1.23-4.71-2.89-1.07-1.57-1.69-4.36-.55-6.04.52-.76,2.56-1.63,1.23-2.25-1.44.06-2.49.92-3.29,2.04ZM102.35,104.52c.28,1.24,2.04.23,2.75.14.6-.08,1.29-.12,1.9-.13,2.01-.06,4.76,1.13,5.95-.9.12-1.18-1.34-1.45-2.19-1.62-1.39-.26-3.38-.2-4.77.07-.94.19-3.95,1.07-3.64,2.44ZM82.7,109.46c-6.17-.98-9.82,4.68-6.34,9.77l.05-4.13c.18-1.17.56-2.43,1.48-3.23.33-.28,1.74-1.16,2.07-1.24l3.28-.75c-.03-.56-.17-.36-.54-.42ZM81.51,119.39c.66-1.04.87-.58,1.81-.84.42-.12.74-.44,1.21-.51.59-.08,3.38,1.53,4.27,1.88,9.51,3.72,20.49.24,30.15-1.27,2.44-.38,7.58-.37,9.51-1.45,1.94-1.09,2.45-4.19,5.01-4.49l1.5,2.06c.51-1.4.34-3.29-.64-4.46-1.29-1.53-3.72-1.23-5.47-1.67-2.01-.51-3.79-1.78-5.95-2.06-1.63-.21-6.4.29-7.26,1.75-.74,1.27,1.19,3.48,2.45,3.88,3.09.99,8.05.13,11.28-.07.41.22.32.3.15.65-.16.32-1.6,1.9-1.92,2.05-1.32.63-3.11.28-4.55.45-8.35.95-16.93,3.55-25.33,3.68-3.14.05-7.01-.31-9.74-1.94,2.71-.85,5.57-.73,8.36-1.05,4.89-.56,11.69-1.17,16.25-2.78.94-.33,1.24-.92,1.35-1.87.22-1.86-.55-2.77-2.33-3.21-1.67-.42-8.31.07-10.1.47-2.21.5-4.72,1.85-6.98,2.5-4.06,1.16-8.41,1.05-12.11,3.26-2.77,1.66-2.67,3.7-1.79,6.58.36.29.71-1.29.86-1.54ZM109.73,128.42c3.45.37,9.9-.29,12.7-2.33.33-.24.86-.56.8-.96-.22-1.56-1.31-.5-2.19-.27-2.26.59-4.93,1.25-7.21,1.64-.96.17-6.11.44-6.31,1-.27.77,1.66.86,2.21.92Z"/>
      <path class="cls-2" d="M80.65,120.93c.36.29.71-1.29.86-1.54.66-1.04.87-.58,1.81-.84.42-.12.74-.44,1.21-.51.59-.08,3.38,1.53,4.27,1.88,9.51,3.72,20.49.24,30.15-1.27,2.44-.38,7.58-.37,9.51-1.45,1.94-1.09,2.45-4.19,5.01-4.49l1.5,2.06c.51-1.4.34-3.29-.64-4.46-1.29-1.53-3.72-1.23-5.47-1.67-2.01-.51-3.79-1.78-5.95-2.06-1.63-.21-6.4.29-7.26,1.75-.74,1.27,1.19,3.48,2.45,3.88,3.09.99,8.05.13,11.28-.07.41.22.32.3.15.65-.16.32-1.6,1.9-1.92,2.05-1.32.63-3.11.28-4.55.45-8.35.95-16.93,3.55-25.33,3.68-3.14.05-7.01-.31-9.74-1.94,2.71-.85,5.57-.73,8.36-1.05,4.89-.56,11.69-1.17,16.25-2.78.94-.33,1.24-.92,1.35-1.87.22-1.86-.55-2.77-2.33-3.21-1.67-.42-8.31.07-10.1.47-2.21.5-4.72,1.85-6.98,2.5-4.06,1.16-8.41,1.05-12.11,3.26-2.77,1.66-2.67,3.7-1.79,6.58Z"/>
      <path class="cls-2" d="M116.79,106.23l-.28-.72c2.35-1,4.58-2.79,6.01-4.92,4.61-6.87-2.14-9.17-6.28-13.08-2.85-2.69-7.26-7.77-5.53-11.92.15-.36,1.46-2.21,1.39-1.12-.04.62-.53,1.43-.17,2.16,1.2-.69,2.22-1.65,3.49-2.25,4.45-2.09,12.02-2.49,15.7,1.28,2.43,2.5,2.64,5.35-.98,6.61-.1-3.42-3.1-5.44-6.2-5.71,1.3,1.93,1.71,3.59,1.12,5.87-.16.63-.75,1.11-.49,1.77,1.99.06,3.88-.4,5.81-.88l.16.83c-4.53,2.85-9.59.4-14.39.19.02.36.3.53.52.75,3.77,3.68,9.83,5.83,10.57,11.75.42,3.34-3.73,7.42-6.64,8.51-1.13.42-2.63.48-3.81.87ZM118.15,79.02c2.05-.59-.34-3.25-1.33-1.67-.5.8.15,2.01,1.33,1.67Z"/>
      <path class="cls-2" d="M87.41,86.68c.49-.11,1.02.43.39.97s-2.8.95-3.71,1.13c-3.46.69-7.73.87-11.28.94-.86.02-5.79.14-6.01-.23-.84-1.41,3.2-.9,3.31-1.08l-1.08-3.76c-1.22.95-5.98,3.62-7.26,2.4-1.28-1.22,1.18-3.15,2.09-3.93,5.76-4.93,14.97-7.98,22.53-7.21,1.98.2,5.6,1.08,6.76,2.79.68,1.01,1.43,3.44.18,4.18-1.57-3.69-6.91-3.79-10.35-3.42,1.12,1.75,2.05,3.63,1.83,5.77-.08.73-.58,1.4-.47,2.15l3.07-.7ZM78.13,81.57c-.22-1.22-1.8-1.2-2.28-.43-1.13,1.79,2.67,2.52,2.28.43Z"/>
      <path class="cls-2" d="M56.68,76.33c3.87-3,7.67-6.21,12.36-7.91,8.04-2.9,13.38-.86,21.21.2,2.7.36,4.64,1.17,5.31-2.19,1.12-5.61-4.69-6.01-8.73-6.21-12.7-.62-22.59,1.5-29.02,13.29-.2.36-1.43,2.63-1.13,2.82Z"/>
      <path class="cls-2" d="M25.79,108.74c.36-.17.3-.51.26-.83-.25-2.18-2.11-9.73,1.23-10.3,2.36-.4,7.26,3.02,8.47,5.07-4.98,1.39-6.53,9.57-2.66,12.74,1.75,1.44,2.87.23,4.78.48,1.52.2,4.18,2.87,5.15,1.32.88-1.39-2.09-2.85-2.86-3.82-1.23-1.53-1.5-3.01-1.05-4.89.45-1.86,1.77-2.65.79-4.78-1.43-3.11-7.61-8.3-11-9.02-8.16-1.72-4.91,10.04-3.11,14.03Z"/>
      <path class="cls-2" d="M98.56,95.74c-1.44.06-2.49.92-3.29,2.04-2.73,3.86.45,8.75,4.67,9.59.41.08,3.13.59,2.64-.46-1.73-.75-3.57-1.23-4.71-2.89-1.07-1.57-1.69-4.36-.55-6.04.52-.76,2.56-1.63,1.23-2.25Z"/>
      <path class="cls-2" d="M107.53,127.5c-.27.77,1.66.86,2.21.92,3.45.37,9.9-.29,12.7-2.33.33-.24.86-.56.8-.96-.22-1.56-1.31-.5-2.19-.27-2.26.59-4.93,1.25-7.21,1.64-.96.17-6.11.44-6.31,1Z"/>
      <path class="cls-2" d="M105.98,102.08c-.94.19-3.95,1.07-3.64,2.44.28,1.24,2.04.23,2.75.14.6-.08,1.29-.12,1.9-.13,2.01-.06,4.76,1.13,5.95-.9.12-1.18-1.34-1.45-2.19-1.62-1.39-.26-3.38-.2-4.77.07Z"/>
      <path class="cls-2" d="M83.24,109.88c-.03-.56-.17-.36-.54-.42-6.17-.98-9.82,4.68-6.34,9.77l.05-4.13c.18-1.17.56-2.43,1.48-3.23.33-.28,1.74-1.16,2.07-1.24l3.28-.75Z"/>
      <path class="cls-2" d="M84.25,92.56c-.89.13-1.53.96-1.61,1.82.18.7.8,1.44,1.56,1.44,3.19,0,2.5-3.6.05-3.25Z"/>
      <path class="cls-3" d="M116.83,77.36c-.5.8.15,2.01,1.33,1.67,2.05-.59-.34-3.25-1.33-1.67Z"/>
      <path class="cls-3" d="M75.85,81.14c-1.13,1.79,2.67,2.52,2.28.43-.22-1.22-1.8-1.2-2.28-.43Z"/>
    </g>
  </g>
  <path class="cls-1" d="M49.69,55.13s1.78,6.19,2.35,6.73,1.43,4.64,1.43,4.64c0,0-9.05,7.56-9.49,14.62-.34,5.42,3.84,16.84,3.84,16.84l-4.31,3.54s-.47-1.71-2.87-6.09c-3.05-5.54-9.02-6.73-9.02-6.73l-3.7-23.68,21.77-9.86Z"/>
</svg>