<?xml version="1.0" encoding="UTF-8"?>
<svg id="Capa_1" data-name="Capa 1" xmlns="http://www.w3.org/2000/svg" viewBox="0 0 236.05 255.86">
  <defs>
    <style>
      .cls-1, .cls-2 {
        fill: #1a2722;
      }

      .cls-3 {
        fill: #fff;
      }

      .cls-3, .cls-4, .cls-2 {
        stroke: #dfe1d6;
        stroke-miterlimit: 10;
      }

      .cls-4, .cls-5 {
        fill: #dfe1d6;
      }
    </style>
  </defs>
  <g>
    <path class="cls-5" d="M95.41,135.63c.11-.83.56-1.33,1.35-1.5.79-.16,1.63-.1,2.51.19.88.29,1.65.75,2.3,1.38s.87,1.33.67,2.1c-1.41,5.32-2.87,10.68-4.41,16.08-1.53,5.4-3.08,10.59-4.64,15.57-1.56,4.98-3.11,9.65-4.64,14.01-1.54,4.36-2.98,8.18-4.34,11.45-1.36,3.27-2.62,5.9-3.78,7.87-1.16,1.98-2.15,3.05-2.98,3.22-.9.22-1.83.22-2.79-.02-.95-.24-1.87-.64-2.73-1.22-.87-.58-1.63-1.3-2.3-2.18-.67-.87-1.15-1.84-1.43-2.89-.21-.78-.22-2.14-.06-4.06.17-1.92.41-4.18.74-6.78.32-2.6.67-5.42,1.02-8.45.36-3.03.61-6.05.75-9.05.16-2.84.25-5.59.26-8.24.01-2.65-.08-5-.26-7.06-.18-2.05-.49-3.67-.92-4.87-.43-1.2-1.03-1.77-1.8-1.73-.93.07-1.91.58-2.94,1.53-1.03.96-2.05,2.21-3.05,3.75-1,1.54-1.97,3.31-2.9,5.29-.93,1.98-1.75,4.04-2.45,6.17-.7,2.13-1.28,4.26-1.72,6.39-.44,2.13-.66,4.09-.66,5.88-.01.7-.36,1.15-1.04,1.36-.68.21-1.4.21-2.17,0-.77-.21-1.45-.62-2.06-1.24-.61-.62-.84-1.41-.71-2.37.31-2.17.8-4.44,1.47-6.81.67-2.37,1.47-4.68,2.4-6.92.93-2.25,1.99-4.39,3.18-6.43,1.19-2.04,2.48-3.83,3.87-5.35,1.39-1.52,2.87-2.75,4.44-3.67,1.57-.92,3.18-1.41,4.85-1.47,1.95-.06,3.49.57,4.64,1.9,1.15,1.33,2,3.13,2.56,5.41.56,2.28.89,4.89.99,7.83.1,2.94.06,6.01-.11,9.19-.17,3.19-.43,6.36-.76,9.51-.34,3.15-.65,6.08-.94,8.77-.29,2.7-.49,5.03-.61,7.01-.12,1.98-.05,3.35.19,4.13.26.86.71.96,1.36.31.65-.65,1.43-1.88,2.33-3.67.9-1.79,1.9-4.07,2.99-6.83,1.09-2.76,2.21-5.83,3.35-9.21,1.14-3.38,2.28-6.97,3.41-10.78,1.13-3.81,2.19-7.64,3.17-11.51.98-3.86,1.86-7.67,2.63-11.43.77-3.75,1.37-7.27,1.79-10.56Z"/>
    <path class="cls-5" d="M99.27,187.33c.49.25,1.15.22,2-.1.85-.32,1.79-.81,2.82-1.49,1.04-.67,2.11-1.46,3.23-2.38,1.12-.91,2.2-1.86,3.25-2.84,1.05-.98,2.01-1.96,2.87-2.93.87-.97,1.59-1.83,2.16-2.57.21-.24.48-.32.82-.25.34.07.62.25.85.54.23.29.35.64.35,1.05,0,.41-.25.81-.76,1.22-.75.93-1.63,2-2.65,3.2-1.01,1.2-2.11,2.39-3.29,3.58-1.18,1.19-2.42,2.32-3.72,3.4-1.3,1.08-2.59,2.01-3.87,2.78-1.29.77-2.55,1.34-3.8,1.7-1.25.36-2.43.38-3.54.07-1.24-.33-2.15-.96-2.74-1.86-.59-.91-.91-1.99-.97-3.24-.05-1.26.12-2.63.51-4.12.4-1.49.94-2.98,1.62-4.48.68-1.49,1.5-2.92,2.45-4.27.95-1.35,1.93-2.54,2.96-3.56,1.38-1.32,2.73-2.17,4.03-2.56,1.3-.39,2.4-.37,3.28.06.88.43,1.46,1.23,1.72,2.39.26,1.16.06,2.61-.6,4.35-.45,1.05-1.03,2.09-1.74,3.12-.71,1.03-1.51,1.95-2.38,2.76-.87.81-1.79,1.47-2.75,1.96-.96.5-1.89.74-2.79.72-.09.22-.16.51-.23.86-.07.36-.08.73-.04,1.11.04.38.13.74.26,1.09.14.35.36.58.66.69ZM99.39,181.07c.82-.21,1.78-.87,2.87-1.98,1.09-1.11,1.95-2.63,2.58-4.57.22-.65.3-1.07.23-1.26-.07-.19-.23-.22-.47-.08-.24.14-.57.43-.97.86-.4.43-.8.94-1.2,1.53-.7,1.01-1.35,2.06-1.95,3.15-.6,1.09-.97,1.88-1.1,2.34Z"/>
    <path class="cls-5" d="M135.95,163.13c-.05.46-.2,1.21-.44,2.27-.24,1.06-.52,2.28-.83,3.68-.31,1.39-.67,2.87-1.08,4.42-.41,1.55-.8,3.05-1.19,4.5.99-.93,2.27-2.08,3.83-3.45,1.56-1.37,3.15-2.75,4.76-4.14.36-.3.74-.41,1.14-.33.4.08.73.27.98.58.25.31.38.67.39,1.1,0,.43-.17.81-.52,1.15-.5.45-1.14,1.04-1.92,1.77-.78.74-1.62,1.51-2.51,2.32-.89.81-1.8,1.64-2.73,2.48-.93.84-1.78,1.61-2.54,2.3-.77.69-1.43,1.31-1.97,1.84-.55.54-.87.87-.97,1.01-.91,2.51-1.8,4.9-2.66,7.18-.86,2.28-1.76,4.45-2.68,6.51-.92,2.06-1.93,4-3.03,5.83-1.1,1.82-2.32,3.52-3.67,5.07-1.8,2.04-3.6,3.22-5.41,3.54-1.8.32-3.28.03-4.42-.89-1.14-.92-1.77-2.34-1.86-4.26-.1-1.92.64-4.11,2.21-6.56,1.35-2.05,2.96-4.07,4.82-6.08,1.86-2.01,3.67-3.82,5.41-5.44,1.74-1.62,3.25-2.98,4.53-4.08,1.27-1.1,2-1.76,2.16-1.99.35-.91.7-1.92,1.05-3.04.35-1.12.69-2.24,1-3.37.31-1.13.61-2.22.89-3.26.28-1.04.51-1.93.68-2.65-1.2,2.23-2.58,4.47-4.14,6.74-1.56,2.26-3.24,4.31-5.03,6.14-.63.63-1.3,1.24-2.01,1.81-.7.58-1.43,1.09-2.17,1.54-.75.44-1.49.79-2.22,1.02-.74.24-1.46.29-2.18.16-1-.13-1.7-.59-2.11-1.38-.41-.79-.58-1.78-.5-2.98.08-1.19.38-2.52.9-3.97.53-1.45,1.21-2.91,2.06-4.39.85-1.48,1.84-2.91,2.99-4.29,1.15-1.38,2.4-2.59,3.74-3.62,1.53-1.14,2.99-1.62,4.36-1.45,1.37.17,2.63.9,3.77,2.19.2-.28.48-.73.83-1.35.35-.63.71-1.29,1.09-2.01.38-.71.75-1.41,1.11-2.1.36-.69.67-1.22.94-1.59.34-.46.81-.74,1.43-.84.62-.1,1.22-.05,1.8.15.58.19,1.06.49,1.45.87.39.39.54.83.45,1.34ZM123.46,190.18c-.78.73-1.6,1.54-2.47,2.41-.86.87-1.73,1.76-2.61,2.67-.88.91-1.7,1.81-2.48,2.68-.78.88-1.48,1.67-2.1,2.38-1.37,1.68-2.29,3.14-2.77,4.38-.48,1.24-.62,2.12-.44,2.64.18.52.65.62,1.39.3.74-.32,1.68-1.18,2.8-2.58.85-1.07,1.69-2.24,2.5-3.51.82-1.27,1.6-2.56,2.36-3.86.75-1.3,1.46-2.6,2.11-3.88.65-1.29,1.22-2.5,1.69-3.63ZM117.15,180.84c.64-.59,1.35-1.34,2.12-2.26.77-.92,1.52-1.86,2.25-2.83.72-.97,1.37-1.87,1.93-2.69.56-.82.92-1.43,1.06-1.82.11-.3,0-.54-.33-.71-.33-.17-.84-.11-1.53.18-.69.29-1.53.86-2.51,1.71-.99.85-2.04,2.14-3.15,3.86-.27.37-.57.85-.9,1.46-.33.6-.64,1.22-.93,1.86-.29.64-.51,1.21-.68,1.73-.16.52-.2.89-.1,1.12.1.23.35.24.77.03.42-.21,1.08-.75,2.01-1.63Z"/>
    <path class="cls-5" d="M151.63,171c-.95,1.25-2.01,2.77-3.19,4.57-1.18,1.8-2.43,3.52-3.74,5.18-1.31,1.65-2.68,3.02-4.12,4.11-1.44,1.08-2.91,1.52-4.41,1.31-1-.13-1.71-.59-2.14-1.38-.43-.79-.62-1.77-.58-2.94.04-1.17.31-2.46.79-3.89.49-1.42,1.13-2.86,1.92-4.31.79-1.45,1.73-2.83,2.8-4.14,1.08-1.31,2.23-2.45,3.47-3.42,1.45-1.17,2.89-1.68,4.32-1.54,1.43.14,2.73.83,3.91,2.08.23-.32.52-.73.85-1.23.33-.5.66-1.02,1.01-1.57.34-.54.69-1.07,1.04-1.57.35-.5.66-.9.94-1.19.45-.52.97-.82,1.57-.89.6-.07,1.13,0,1.6.24.46.23.81.62,1.04,1.15.23.54.21,1.15-.05,1.84-1.56,4.36-2.52,7.64-2.89,9.81-.37,2.18-.23,3.38.42,3.6.65.23,1.8-.49,3.46-2.13,1.66-1.65,3.74-4.1,6.24-7.35.31-.37.62-.58.94-.61.32-.03.59.06.81.27s.34.52.36.92c.02.4-.13.88-.45,1.42-3.05,4.97-5.7,8.37-7.93,10.21-2.24,1.84-4.28,2.46-6.13,1.85-1.16-.39-1.95-1.36-2.36-2.93-.41-1.57-.23-4.06.53-7.49ZM141.38,178.55c.6-.58,1.27-1.32,2.01-2.21.74-.89,1.45-1.8,2.14-2.72.69-.92,1.3-1.79,1.82-2.61.52-.82.86-1.42,1-1.81.11-.3,0-.53-.35-.68-.35-.15-.86-.09-1.53.18-.67.27-1.48.83-2.43,1.67-.95.84-1.96,2.1-3.04,3.78-.23.36-.51.84-.84,1.45s-.63,1.2-.88,1.79c-.25.59-.45,1.14-.6,1.65-.14.51-.17.87-.07,1.08.09.21.36.21.79,0,.44-.21,1.1-.73,1.99-1.57Z"/>
    <path class="cls-5" d="M174.43,158.48c-1.27.49-2.55,1.28-3.85,2.38-1.29,1.1-2.38,2.35-3.26,3.76-.88,1.4-1.44,2.88-1.69,4.43-.25,1.55.04,2.99.87,4.33.25-.24.71-.61,1.39-1.11.68-.49,1.44-1.06,2.3-1.71.86-.64,1.77-1.31,2.74-1.99.97-.68,1.89-1.34,2.75-1.96.86-.62,1.61-1.16,2.25-1.61.64-.45,1.07-.75,1.29-.91.41-.27.78-.32,1.11-.14.33.17.59.44.77.8.18.36.24.77.19,1.22-.05.46-.26.84-.62,1.14-.54.45-1.34,1.06-2.41,1.82-1.06.76-2.21,1.59-3.43,2.5-1.22.91-2.42,1.81-3.58,2.71-1.16.9-2.12,1.71-2.86,2.44.31.68.6,1.44.88,2.28.27.83.45,1.73.52,2.7.07.97,0,1.98-.23,3.03-.22,1.05-.67,2.14-1.35,3.27-1.23,2.03-2.54,3.56-3.93,4.59-1.39,1.03-2.7,1.67-3.95,1.91-1.25.24-2.35.1-3.31-.4-.96-.5-1.62-1.28-1.99-2.35-.37-1.06-.38-2.38-.04-3.94.35-1.56,1.22-3.31,2.63-5.25.78-1.02,1.64-2.05,2.6-3.1.96-1.05,1.99-2.09,3.09-3.12-1.39-2.07-2.07-4.2-2.05-6.41.02-2.21.5-4.33,1.44-6.38.94-2.04,2.23-3.93,3.88-5.66,1.64-1.73,3.42-3.15,5.32-4.26.64-.35,1.26-.33,1.87.04.61.37,1.07.88,1.37,1.53.31.65.43,1.31.37,1.99-.06.68-.43,1.16-1.12,1.43ZM164.77,179.88c-.71.68-1.57,1.61-2.59,2.79-1.02,1.18-1.82,2.37-2.41,3.56-.95,1.98-1.16,3.17-.63,3.56.53.38,1.4-.11,2.61-1.48.66-.72,1.24-1.48,1.72-2.29.48-.81.86-1.59,1.13-2.35.27-.76.42-1.46.46-2.12.04-.66-.06-1.21-.29-1.67Z"/>
  </g>
  <g>
    <g id="fs2kgN">
      <g>
        <path class="cls-3" d="M137.79,170.09c1.83-.43,3.74-.64,5.55-1.16,8.68-2.49,12.39-6.58,13.02-15.55.07-1.06-.16-3.17.06-4,.19-.73,1.99-3.47,2.48-4.49,4.26-8.85,8.46-21.79,5.39-31.5-1.11-3.5-3.6-6.24-5.95-8.93.03-3.5,1.21-6.87,1.46-10.36-1.63-2.82-4.05-5.21-5.91-7.83-3.26-4.56-3.32-10.88-6.2-15.74,3.2-3.16,3.98-8.14,3.04-12.42l-2.76,2.91c-.06-1.05.65-1.91.8-2.99.4-2.85-.79-5.57-2.75-7.6-.17-.18-1.78-1.75-1.88-1.2.1.87.12,1.76-.02,2.62-.02.1-.11,1.31-.48,1.01-.41-3.24-2.61-4.89-5.33-6.2-20.01-9.64-54.03.82-68.28,16.93-8.43,9.53-7.92,17.11-7.16,29.15.37,5.88,1.04,11.74,1.61,17.61-.17.47-1.56.23-2.06.29-3.56.48-5.82,2.89-6.89,6.18-2.62,8.12,1.56,19.07,7.61,24.74,1.59,1.49,1.16,1.35,2.2,3.15,2.81,4.88,13.23,5.52,17.92,2.57M83.26,147.29c-.03-.21-.13-.82.18-.89,2.75,4.61,7.2,8.27,11.61,11.26,11.04,7.45,24.43,11.64,37.66,12.75"/>
        <path class="cls-2" d="M132.72,170.4c-13.23-1.11-26.63-5.3-37.66-12.75-4.42-2.98-11.04-7.69-11.79-10.36M83.26,147.29c-4.7,2.95-15.12,2.3-17.92-2.57-1.04-1.81-.62-1.67-2.2-3.15-6.05-5.66-10.23-16.62-7.61-24.74,1.06-3.29,3.32-5.7,6.89-6.18.5-.07,1.89.18,2.06-.29-.58-5.87-1.24-11.73-1.61-17.61-.76-12.04-1.27-19.62,7.16-29.15,14.25-16.11,48.27-26.58,68.28-16.93,2.72,1.31,4.91,2.97,5.33,6.2.38.3.47-.91.48-1.01.14-.87.12-1.75.02-2.62.09-.55,1.71,1.03,1.88,1.2,1.96,2.03,3.15,4.75,2.75,7.6-.15,1.08-.86,1.94-.8,2.99l2.76-2.91c.94,4.28.15,9.26-3.04,12.42,2.88,4.86,2.94,11.18,6.2,15.74,1.87,2.62,4.28,5.01,5.91,7.83-.24,3.49-1.43,6.86-1.46,10.36,2.34,2.69,4.84,5.43,5.95,8.93,3.07,9.71-1.13,22.65-5.39,31.5-.49,1.02-2.29,3.76-2.48,4.49-.22.83.02,2.93-.06,4-.63,8.97-4.34,13.06-13.02,15.55-1.82.52-3.72.73-5.55,1.16-.35.28-2.28.36-5.08.31M85.25,91.7c.45-.2.88.51.73.78-.03.05-.36.04-.46.16-.31.41-.29.47-.74.95-.25.27-.07,1.02-1.03.36l-.17.51.41.1c-.1.45-.87.38-.99.54-.11.16-.13.41-.55.97-.16.22-.15.57-.36.7-.38.24-1.71.28-1.84.48-.05.08.07.38,0,.54-.12.26-.51.25-.56.35-.09.16.19.62.14.7s-.59.03-.69.18c-.06.08.07.38,0,.54-.05.11-1.11,1.8-1.19,1.89-.25.3-.75,0-.35.94l-.91.2c-.43-.7.53-.79.55-.99l-.15-.62c-1-.25-1.48,1.07-1.59,1.13-.28.14-1.01.12-1.11.28-.05.08.07.38,0,.54-.11.23-.44.23-.53.37-.1.15.06.61-.17.75-.57.34-.72-.48-1.11-.7-.53-.16.18.91-.52,1.07-.74.17-.33-1.27-1.38-.64l.17.73-2.36.53.14.7c-1.05.37-.6.57-.68.75-.16.38-.78.49-.37,1.22l.52-.1.19.7-.72.17.43,2.76.71-.13c.15.79.72.51,1.09.73,1.18.7,4.09,2.37,4.77,3.39.32.47.67,1.38.88,1.93-.23.39-5.38-2.46-5.97-2.72-3.46-1.48-7.76-2.62-10.35.91-4.75,6.48.18,19.24,5.69,24.02.37.32,1.36.74,1.54,1,.31.43.57,1.51.97,2.16,2.36,3.94,9.37,5.1,12.53,1.5,2.47-2.82,1.32-5.59.48-8.86-.23-.88-.71-1.66-.81-2.67-.03-.34-.13-.28.3-.35,2.69,7.64,6.52,15.3,12.97,20.45,3.81,3.04,8.25,4.51,12.82,6.01,2.23.73,6.46,2.28,8.58,2.63.34.06.67.15,1-.04.28-1.09,1.06-4.81,2.2-5.07.49-.11,5.53,1.62,6.61,1.85,4.27.93,8.34,1.35,11.34-2.5,1.65-2.12,1.6-4.62,1.41-7.18l.32-.27,6.45-1.25c1.04,2.42,1.88,5.14,4.5,6.28,3.53,1.54,5.3-2.95,6.59-5.33,5.59-10.29,11.01-27.61,4.3-38.39-.7-1.13-2.97-3.53-3.23-4.5-.59-2.22,1.24-6.32,1-8.7-5.62-4.73-12.06-1.65-18.38-.39-2.67-.47,0-6.16,1.07-7.07.9-.76,4.72-.61,6.01-.5,2.2.18,4.37.77,6.35,1.75l3.57,2.33c-1.29-2.43-3.65-4.39-4.93-6.83-3.25-6.18-3.59-16.97-11.04-20.18-2.33-1-7.24.34-9.74.7-7.68,1.09-14.38-.55-21.87.25-6.12.66-18.49,3.87-23.35,7.61-3.47,2.67-1.66,8.56-.58,12.2.23.78,2,4.83,1.9,5.15-.03.09-.58.37-.42.51Z"/>
        <path class="cls-4" d="M83.78,86.04c-1.08-3.64-2.89-9.53.58-12.2,4.86-3.74,17.23-6.96,23.35-7.61,7.49-.81,14.2.84,21.87-.25,2.5-.35,7.41-1.7,9.74-.7,7.45,3.21,7.79,14,11.04,20.18,1.28,2.44,3.64,4.4,4.93,6.83l-3.57-2.33c-1.97-.97-4.15-1.56-6.35-1.75-1.29-.11-5.11-.26-6.01.5-1.08.91-3.75,6.6-1.07,7.07,6.32-1.26,12.76-4.34,18.38.39.24,2.38-1.58,6.48-1,8.7.26.97,2.53,3.37,3.23,4.5,6.72,10.78,1.3,28.1-4.3,38.39-1.29,2.37-3.06,6.87-6.59,5.33-2.62-1.14-3.46-3.87-4.5-6.28l-6.45,1.25-.32.27c.19,2.56.24,5.06-1.41,7.18-3,3.85-7.07,3.42-11.34,2.5-1.08-.23-6.12-1.96-6.61-1.85-1.14.25-1.92,3.98-2.2,5.07-.32.19-.66.1-1,.04-2.12-.35-6.35-1.9-8.58-2.63-4.57-1.5-9-2.97-12.82-6.01-6.45-5.14-10.27-12.8-12.97-20.45-.43.07-.33.01-.3.35.1,1.01.58,1.79.81,2.67.84,3.27,2,6.05-.48,8.86-3.16,3.6-10.17,2.44-12.53-1.5-.39-.66-.65-1.73-.97-2.16-.19-.26-1.18-.68-1.54-1-5.51-4.78-10.44-17.55-5.69-24.02,2.59-3.53,6.89-2.39,10.35-.91.59.25,5.74,3.11,5.97,2.72-.21-.56-.56-1.46-.88-1.93-.68-1.01-3.59-2.69-4.77-3.39-.37-.22-.94.05-1.09-.73l-.71.13-.43-2.76.72-.17-.19-.7-.52.1c-.41-.74.21-.85.37-1.22.08-.19-.38-.38.68-.75l-.14-.7,2.36-.53-.17-.73c1.05-.63.65.81,1.38.64.69-.16-.02-1.23.52-1.07.39.21.55,1.03,1.11.7.22-.13.07-.6.17-.75.09-.13.42-.13.53-.37.07-.16-.05-.46,0-.54.11-.16.83-.14,1.11-.28.11-.06.6-1.38,1.59-1.13l.15.62c-.01.2-.97.3-.55.99l.91-.2c-.4-.94.1-.64.35-.94.08-.09,1.14-1.78,1.19-1.89.07-.16-.05-.46,0-.54.1-.15.64-.1.69-.18s-.23-.54-.14-.7c.05-.09.44-.09.56-.35.07-.15-.05-.46,0-.54.12-.19,1.45-.23,1.84-.48.22-.14.2-.48.36-.7.43-.56.44-.81.55-.97.12-.16.89-.09.99-.54l-.41-.1.17-.51c.96.65.77-.1,1.03-.36.45-.48.43-.53.74-.95.09-.12.43-.11.46-.16.15-.27-.28-.97-.73-.78-.16-.13.39-.41.42-.51.1-.32-1.66-4.37-1.9-5.15ZM99.29,94.24c6.88-2.48,11.45-.73,18.16.17,2.31.31,3.97,1,4.55-1.87.96-4.8-4.02-5.15-7.47-5.32-10.87-.53-19.34,1.28-24.84,11.37-.17.31-1.23,2.25-.97,2.41,3.31-2.57,6.56-5.32,10.57-6.77ZM112.79,108.62c.19-1.83-.61-3.44-1.57-4.94,2.94-.31,7.51-.23,8.86,2.93,1.07-.64.43-2.71-.15-3.58-.99-1.47-4.1-2.21-5.79-2.39-6.47-.66-14.36,1.94-19.28,6.17-.78.67-2.88,2.31-1.79,3.36s5.17-1.24,6.21-2.05l.92,3.22c-.09.15-3.55-.28-2.83.93.19.32,4.41.22,5.15.2,3.04-.06,6.69-.21,9.65-.8.78-.16,2.63-.5,3.17-.96s.08-.93-.34-.83l-2.63.6c-.09-.64.34-1.21.4-1.84ZM149.1,118.58c-.64-5.07-5.82-6.91-9.05-10.06-.19-.19-.43-.33-.45-.64,4.11.17,8.44,2.28,12.32-.17l-.14-.71c-1.65.41-3.27.81-4.97.75-.22-.57.28-.98.42-1.52.5-1.95.15-3.37-.96-5.02,2.65.23,5.22,1.96,5.3,4.88,3.1-1.08,2.93-3.52.84-5.66-3.15-3.23-9.62-2.88-13.43-1.09-1.09.51-1.96,1.33-2.98,1.92-.31-.63.11-1.32.14-1.85.06-.93-1.06.65-1.19.96-1.48,3.55,2.29,7.91,4.73,10.2,3.54,3.34,9.32,5.31,5.38,11.19-1.22,1.82-3.12,3.36-5.14,4.21l.24.62c1-.33,2.3-.38,3.26-.74,2.49-.93,6.04-4.43,5.68-7.29ZM62.5,128.04c-.22-1.87-1.81-8.33,1.05-8.81,2.02-.34,6.21,2.59,7.25,4.34-4.27,1.19-5.59,8.19-2.28,10.9,1.5,1.23,2.45.19,4.09.41,1.3.17,3.57,2.46,4.41,1.13.75-1.19-1.79-2.44-2.45-3.27-1.05-1.31-1.29-2.58-.9-4.19.38-1.59,1.51-2.27.67-4.09-1.22-2.66-6.51-7.1-9.42-7.72-6.99-1.47-4.21,8.6-2.66,12.01.31-.14.26-.43.22-.71ZM110.93,116.46c.16.6.69,1.23,1.34,1.23,2.73,0,2.14-3.09.04-2.78-.77.11-1.31.82-1.38,1.56ZM121.75,119.37c-2.33,3.3.39,7.49,4,8.21.35.07,2.67.5,2.26-.39-1.48-.65-3.06-1.05-4.03-2.47-.92-1.35-1.45-3.73-.47-5.17.45-.65,2.19-1.39,1.05-1.92-1.24.05-2.13.79-2.81,1.75ZM127.8,125.14c.24,1.06,1.75.2,2.35.12.51-.07,1.1-.1,1.62-.12,1.72-.06,4.08.96,5.09-.77.1-1.01-1.14-1.25-1.88-1.38-1.19-.23-2.89-.18-4.08.06-.81.16-3.38.92-3.11,2.09ZM110.98,129.36c-5.28-.84-8.41,4.01-5.42,8.37l.04-3.54c.15-1,.48-2.08,1.27-2.77.28-.24,1.49-1,1.77-1.06l2.81-.64c-.03-.48-.14-.31-.46-.36ZM109.97,137.87c.56-.89.74-.49,1.55-.72.36-.1.64-.38,1.04-.43.51-.07,2.89,1.31,3.66,1.61,8.14,3.18,17.54.21,25.81-1.09,2.09-.33,6.49-.32,8.14-1.24,1.66-.93,2.1-3.59,4.29-3.85l1.29,1.77c.44-1.19.29-2.82-.55-3.81-1.1-1.31-3.19-1.05-4.68-1.43-1.72-.44-3.25-1.52-5.1-1.76-1.4-.18-5.48.25-6.21,1.5-.64,1.09,1.02,2.98,2.1,3.32,2.65.85,6.89.11,9.65-.06.35.19.27.26.13.55-.14.27-1.37,1.63-1.64,1.76-1.13.54-2.66.24-3.9.38-7.15.82-14.49,3.04-21.68,3.15-2.69.04-6-.27-8.34-1.66,2.32-.73,4.77-.62,7.15-.9,4.18-.48,10.01-1,13.91-2.38.8-.28,1.06-.79,1.15-1.6.19-1.59-.47-2.37-1.99-2.75-1.43-.36-7.11.06-8.64.41-1.9.43-4.04,1.59-5.97,2.14-3.47.99-7.2.89-10.37,2.79-2.37,1.42-2.28,3.16-1.53,5.63.31.25.61-1.11.74-1.32ZM134.12,145.59c2.96.32,8.47-.25,10.87-1.99.28-.2.73-.48.69-.82-.19-1.34-1.12-.43-1.87-.23-1.93.5-4.22,1.07-6.17,1.41-.82.14-5.23.37-5.4.86-.23.66,1.42.73,1.89.78Z"/>
        <path class="cls-2" d="M109.23,139.18c.31.25.61-1.11.74-1.32.56-.89.74-.49,1.55-.72.36-.1.64-.38,1.04-.43.51-.07,2.89,1.31,3.66,1.61,8.14,3.18,17.54.21,25.81-1.09,2.09-.33,6.49-.32,8.14-1.24,1.66-.93,2.1-3.59,4.29-3.85l1.29,1.77c.44-1.19.29-2.82-.55-3.81-1.1-1.31-3.19-1.05-4.68-1.43-1.72-.44-3.25-1.52-5.1-1.76-1.4-.18-5.48.25-6.21,1.5-.64,1.09,1.02,2.98,2.1,3.32,2.65.85,6.89.11,9.65-.06.35.19.27.26.13.55-.14.27-1.37,1.63-1.64,1.76-1.13.54-2.66.24-3.9.38-7.15.82-14.49,3.04-21.68,3.15-2.69.04-6-.27-8.34-1.66,2.32-.73,4.77-.62,7.15-.9,4.18-.48,10.01-1,13.91-2.38.8-.28,1.06-.79,1.15-1.6.19-1.59-.47-2.37-1.99-2.75-1.43-.36-7.11.06-8.64.41-1.9.43-4.04,1.59-5.97,2.14-3.47.99-7.2.89-10.37,2.79-2.37,1.42-2.28,3.16-1.53,5.63Z"/>
        <path class="cls-2" d="M140.16,126.6l-.24-.62c2.02-.86,3.92-2.39,5.14-4.21,3.94-5.88-1.83-7.85-5.38-11.19-2.44-2.3-6.21-6.65-4.73-10.2.13-.31,1.25-1.89,1.19-.96-.03.53-.46,1.22-.14,1.85,1.03-.59,1.9-1.41,2.98-1.92,3.81-1.79,10.29-2.13,13.43,1.09,2.08,2.14,2.26,4.58-.84,5.66-.09-2.93-2.65-4.66-5.3-4.88,1.11,1.65,1.46,3.07.96,5.02-.14.54-.64.95-.42,1.52,1.71.06,3.32-.34,4.97-.75l.14.71c-3.88,2.44-8.21.34-12.32.17.02.31.25.45.45.64,3.23,3.15,8.41,4.99,9.05,10.06.36,2.86-3.19,6.35-5.68,7.29-.96.36-2.25.41-3.26.74ZM141.33,103.31c1.75-.5-.29-2.78-1.14-1.43-.43.69.12,1.72,1.14,1.43Z"/>
        <path class="cls-2" d="M115.01,109.87c.42-.09.87.37.34.83s-2.4.81-3.17.96c-2.96.59-6.61.74-9.65.8-.73.01-4.95.12-5.15-.2-.72-1.2,2.74-.77,2.83-.93l-.92-3.22c-1.04.82-5.12,3.1-6.21,2.05s1.01-2.69,1.79-3.36c4.93-4.22,12.81-6.83,19.28-6.17,1.69.17,4.8.92,5.79,2.39.59.87,1.22,2.94.15,3.58-1.35-3.15-5.92-3.24-8.86-2.93.96,1.5,1.76,3.11,1.57,4.94-.07.63-.49,1.2-.4,1.84l2.63-.6ZM107.08,105.49c-.19-1.04-1.54-1.03-1.95-.37-.97,1.53,2.28,2.16,1.95.37Z"/>
        <path class="cls-2" d="M88.71,101.01c3.31-2.57,6.56-5.32,10.57-6.77,6.88-2.48,11.45-.73,18.16.17,2.31.31,3.97,1,4.55-1.87.96-4.8-4.02-5.15-7.47-5.32-10.87-.53-19.34,1.28-24.84,11.37-.17.31-1.23,2.25-.97,2.41Z"/>
        <path class="cls-2" d="M62.28,128.75c.31-.14.26-.43.22-.71-.22-1.87-1.81-8.33,1.05-8.81,2.02-.34,6.21,2.59,7.25,4.34-4.27,1.19-5.59,8.19-2.28,10.9,1.5,1.23,2.45.19,4.09.41,1.3.17,3.57,2.46,4.41,1.13.75-1.19-1.79-2.44-2.45-3.27-1.05-1.31-1.29-2.58-.9-4.19.38-1.59,1.51-2.27.67-4.09-1.22-2.66-6.51-7.1-9.42-7.72-6.99-1.47-4.21,8.6-2.66,12.01Z"/>
        <path class="cls-2" d="M124.56,117.62c-1.24.05-2.13.79-2.81,1.75-2.33,3.3.39,7.49,4,8.21.35.07,2.67.5,2.26-.39-1.48-.65-3.06-1.05-4.03-2.47-.92-1.35-1.45-3.73-.47-5.17.45-.65,2.19-1.39,1.05-1.92Z"/>
        <path class="cls-2" d="M132.23,144.81c-.23.66,1.42.73,1.89.78,2.96.32,8.47-.25,10.87-1.99.28-.2.73-.48.69-.82-.19-1.34-1.12-.43-1.87-.23-1.93.5-4.22,1.07-6.17,1.41-.82.14-5.23.37-5.4.86Z"/>
        <path class="cls-2" d="M130.91,123.05c-.81.16-3.38.92-3.11,2.09.24,1.06,1.75.2,2.35.12.51-.07,1.1-.1,1.62-.12,1.72-.06,4.08.96,5.09-.77.1-1.01-1.14-1.25-1.88-1.38-1.19-.23-2.89-.18-4.08.06Z"/>
        <path class="cls-2" d="M111.45,129.72c-.03-.48-.14-.31-.46-.36-5.28-.84-8.41,4.01-5.42,8.37l.04-3.54c.15-1,.48-2.08,1.27-2.77.28-.24,1.49-1,1.77-1.06l2.81-.64Z"/>
        <path class="cls-2" d="M112.31,114.9c-.77.11-1.31.82-1.38,1.56.16.6.69,1.23,1.34,1.23,2.73,0,2.14-3.09.04-2.78Z"/>
        <path class="cls-3" d="M140.19,101.89c-.43.69.12,1.72,1.14,1.43,1.75-.5-.29-2.78-1.14-1.43Z"/>
        <path class="cls-3" d="M105.12,105.12c-.97,1.53,2.28,2.16,1.95.37-.19-1.04-1.54-1.03-1.95-.37Z"/>
      </g>
    </g>
    <path class="cls-1" d="M82.73,82.87s1.52,5.3,2.01,5.76,1.22,3.97,1.22,3.97c0,0-7.75,6.47-8.12,12.51-.29,4.64,3.29,14.41,3.29,14.41l-3.69,3.03s-.4-1.47-2.46-5.21c-2.61-4.75-7.72-5.76-7.72-5.76l-3.17-20.27,18.63-8.44Z"/>
  </g>
  <g>
    <path class="cls-5" d="M132.8,202.26c.2.15.51.18.92.1.41-.08.87-.24,1.39-.47.52-.23,1.07-.51,1.64-.85.57-.33,1.14-.69,1.68-1.06.55-.37,1.05-.75,1.52-1.13.46-.38.85-.72,1.17-1.02.11-.09.24-.11.39-.06.15.06.26.16.35.31.08.15.11.32.08.5-.03.19-.17.35-.43.5-.41.37-.89.79-1.43,1.27-.55.47-1.13.94-1.75,1.39-.62.45-1.27.88-1.93,1.28-.67.4-1.32.73-1.96.99-.64.26-1.26.43-1.85.5-.59.07-1.13,0-1.61-.22-.54-.24-.91-.59-1.11-1.04-.2-.45-.27-.97-.21-1.54.07-.57.24-1.19.53-1.84.29-.65.64-1.29,1.06-1.92.42-.63.89-1.22,1.42-1.77.53-.55,1.06-1.02,1.6-1.4.72-.5,1.39-.79,2.02-.88.62-.08,1.12,0,1.49.26.37.26.57.66.61,1.21.04.55-.16,1.19-.58,1.93-.28.45-.62.88-1.02,1.29-.4.42-.83.78-1.28,1.08-.45.31-.92.54-1.39.7-.47.16-.91.2-1.32.13-.06.09-.11.22-.17.38-.06.16-.09.32-.1.5,0,.18,0,.35.04.51.04.17.12.29.25.36ZM133.3,199.42c.39-.04.87-.27,1.45-.7.57-.43,1.08-1.06,1.5-1.89.15-.28.21-.46.19-.56-.02-.09-.09-.12-.21-.07-.12.05-.29.15-.5.32-.21.17-.43.37-.65.61-.39.41-.76.84-1.11,1.29-.35.45-.58.78-.67.99Z"/>
    <path class="cls-5" d="M145.51,194.52c-.61.13-1.25.4-1.92.81-.67.41-1.25.9-1.75,1.47-.5.57-.86,1.21-1.08,1.89-.22.69-.19,1.36.08,2.03.13-.09.37-.23.71-.4.34-.18.73-.38,1.17-.61.44-.23.9-.47,1.39-.71.49-.24.95-.47,1.39-.7.44-.22.82-.41,1.14-.57.32-.16.54-.26.65-.32.2-.09.38-.09.51.01.14.1.24.24.29.42.06.18.06.37,0,.57-.06.2-.18.36-.36.47-.28.17-.69.39-1.22.65-.54.27-1.12.57-1.74.89-.62.32-1.23.65-1.82.97-.59.32-1.08.63-1.47.9.09.33.17.7.24,1.1.06.4.08.82.04,1.27-.04.45-.14.9-.32,1.36-.18.46-.46.93-.85,1.39-.7.83-1.41,1.44-2.11,1.81-.7.37-1.35.57-1.93.58-.58.02-1.08-.12-1.47-.42-.4-.3-.64-.7-.74-1.21-.09-.51,0-1.11.26-1.79.27-.69.79-1.42,1.57-2.2.43-.41.89-.82,1.4-1.22.51-.41,1.05-.81,1.63-1.2-.48-1.04-.64-2.06-.47-3.06.17-1,.54-1.93,1.11-2.8.57-.86,1.3-1.63,2.17-2.29.87-.67,1.78-1.19,2.73-1.56.32-.11.6-.06.85.15.25.21.42.48.51.79.09.32.1.63.03.93-.07.31-.28.5-.61.57ZM139.58,203.56c-.37.26-.83.62-1.38,1.08-.55.46-1,.95-1.35,1.45-.57.83-.76,1.36-.54,1.57.21.21.64.05,1.29-.49.35-.28.67-.58.95-.92.28-.33.5-.66.68-.99.18-.32.3-.63.36-.93.06-.3.06-.56-.01-.78Z"/>
    <path class="cls-5" d="M154.71,183.9c.24-.22.53-.28.86-.17s.62.31.86.58c.24.28.39.59.45.93.06.34-.07.64-.39.9-.43.35-.84.73-1.25,1.13-.41.4-.81.81-1.2,1.24.37-.02.81-.03,1.31-.03s1.01,0,1.52.03c.51.02,1,.05,1.46.08.46.04.85.08,1.17.14.24.07.38.24.43.49.05.25.01.5-.1.75-.11.25-.29.45-.53.61-.24.16-.52.19-.83.1-.28-.07-.66-.14-1.14-.21-.48-.06-1-.12-1.54-.17-.55-.05-1.1-.08-1.67-.1-.57-.02-1.07-.02-1.52,0-.83,1.08-1.6,2.19-2.29,3.35-.7,1.16-1.32,2.3-1.88,3.44-.56,1.13-1.04,2.22-1.45,3.27-.41,1.05-.76,2.01-1.04,2.88-.29.87-.51,1.63-.65,2.28-.15.65-.24,1.13-.28,1.45-.04.3-.22.52-.56.67-.33.15-.68.2-1.04.17-.36-.04-.68-.17-.95-.39-.27-.22-.35-.56-.24-1,.35-1.37.81-2.77,1.38-4.19.57-1.42,1.18-2.82,1.85-4.2.67-1.38,1.37-2.72,2.11-4.02.74-1.3,1.47-2.51,2.2-3.64-.69.06-1.4.15-2.13.28-.73.13-1.4.3-2.02.5-.26.13-.5.13-.72,0-.22-.13-.38-.31-.49-.54-.1-.23-.12-.47-.06-.72.07-.25.27-.42.63-.51.95-.26,1.92-.44,2.92-.53,1-.09,2.02-.17,3.06-.22.74-1.08,1.44-2.01,2.09-2.8.65-.79,1.21-1.39,1.67-1.82Z"/>
    <path class="cls-5" d="M151.57,194.89c.19-.26.43-.37.74-.32.31.05.59.16.85.35.26.19.45.41.58.67.13.26.1.47-.08.64-.09.07-.26.3-.49.68-.23.38-.49.83-.78,1.35-.29.52-.57,1.06-.85,1.63-.28.57-.5,1.08-.67,1.53-.17.45-.26.81-.26,1.06,0,.25.12.31.38.18.32-.15.69-.43,1.13-.83.44-.41.89-.88,1.36-1.4.47-.53.95-1.1,1.43-1.71.48-.61.93-1.2,1.35-1.75s.78-1.07,1.1-1.53c.32-.46.55-.82.7-1.06.19-.32.44-.47.75-.46.32,0,.61.11.89.29.28.19.49.41.64.67.15.26.16.48.03.67-.06.07-.17.28-.33.61s-.35.73-.54,1.18c-.19.45-.39.94-.58,1.46-.19.52-.34,1-.45,1.43-.1.44-.15.8-.14,1.1,0,.3.13.45.35.45.19,0,.47-.12.85-.36.38-.24.8-.56,1.25-.95.45-.39.93-.82,1.43-1.28.5-.46.97-.91,1.42-1.34.13-.13.27-.18.43-.17.16.02.29.08.4.19.11.11.17.26.18.45,0,.19-.05.38-.18.58-.28.3-.6.64-.97,1.02-.37.38-.77.77-1.21,1.18-.44.41-.88.8-1.32,1.17-.45.37-.89.7-1.32.97-.44.28-.84.48-1.21.61-.37.13-.7.15-.97.06-.72-.24-1.18-.7-1.36-1.38-.19-.68-.15-1.57.11-2.68-.74.87-1.48,1.73-2.23,2.57-.74.84-1.59,1.53-2.53,2.04-.46.26-.9.39-1.32.39s-.79-.08-1.11-.25c-.32-.17-.58-.41-.78-.72-.19-.32-.3-.68-.32-1.08-.02-.28.04-.63.18-1.07.14-.44.32-.91.54-1.42.22-.51.47-1.04.75-1.59.28-.55.56-1.07.83-1.57.28-.5.54-.95.78-1.34.24-.39.44-.7.58-.92Z"/>
    <path class="cls-5" d="M168.23,198.42c-.35.46-.75.98-1.18,1.54-.44.57-.89,1.13-1.36,1.7-.47.57-.96,1.11-1.47,1.63-.51.52-1.01.95-1.49,1.29-.48.34-.95.58-1.39.71-.45.13-.85.09-1.22-.11-.45-.24-.7-.63-.78-1.17-.07-.54,0-1.14.19-1.82.2-.68.51-1.4.93-2.17.42-.77.89-1.52,1.43-2.24.54-.72,1.11-1.38,1.72-1.97.61-.59,1.21-1.07,1.78-1.42.35-.22.71-.36,1.07-.4.36-.05.7-.03,1.02.06.32.08.6.22.86.42.26.19.45.41.58.65.15-.18.39-.52.74-1.02.34-.49.74-1.06,1.2-1.7.45-.64.94-1.32,1.45-2.04.51-.72,1.01-1.41,1.49-2.07.48-.66.92-1.26,1.31-1.79.39-.54.7-.94.92-1.2.19-.24.42-.34.71-.29.29.05.54.18.75.4.21.22.35.5.4.82.06.32-.06.64-.33.93-1.85,2.06-3.39,4.11-4.6,6.15-1.21,2.04-2.16,3.95-2.82,5.74-.67,1.79-1.09,3.41-1.28,4.85-.19,1.45-.17,2.61.06,3.48.06.2-.03.4-.25.58-.22.18-.49.32-.79.4-.31.08-.6.09-.89.03-.29-.07-.47-.24-.54-.51-.06-.2-.07-.62-.04-1.25.03-.63.11-1.39.25-2.27.14-.88.34-1.84.61-2.88.27-1.04.6-2.06.99-3.06ZM167.54,196.64c.09-.13.09-.26-.01-.4-.1-.14-.28-.19-.54-.15-.35.04-.75.25-1.2.63-.45.38-.89.84-1.32,1.38-.44.54-.85,1.12-1.25,1.74-.4.62-.72,1.18-.96,1.68-.24.5-.38.89-.43,1.18-.05.29.05.39.29.29.18-.07.43-.25.74-.54.31-.29.64-.64,1.02-1.06.37-.42.76-.87,1.15-1.35.4-.48.77-.95,1.11-1.39.34-.45.64-.85.89-1.21.25-.36.42-.63.51-.79Z"/>
    <path class="cls-5" d="M178.52,198.03c.13-.07.26-.08.39-.03.13.06.24.14.33.25.09.11.14.24.15.39,0,.15-.04.28-.15.39-.2.19-.48.48-.83.88-.35.4-.76.83-1.22,1.28-.46.45-.96.91-1.5,1.38-.54.46-1.09.86-1.67,1.18-.58.32-1.15.56-1.71.7-.57.14-1.11.11-1.63-.1-.54-.2-.88-.59-1.03-1.15-.15-.57-.15-1.21,0-1.95.15-.73.43-1.5.83-2.29.41-.8.89-1.55,1.45-2.25.19-.24.44-.35.75-.32.32.03.6.13.85.29.25.17.43.39.54.65.11.27.06.53-.14.79-.48.63-.87,1.21-1.15,1.74-.29.53-.49.98-.6,1.36-.11.38-.15.69-.13.92.03.23.13.36.29.38.24.04.6-.06,1.07-.31.47-.24,1-.57,1.57-1,.57-.43,1.17-.91,1.79-1.46.62-.55,1.2-1.12,1.74-1.71ZM177.08,192.94c-.13.17-.32.4-.57.71-.25.31-.52.6-.82.88-.3.28-.59.5-.88.67-.29.17-.52.19-.71.08-.2-.13-.29-.37-.26-.71.03-.34.11-.71.25-1.11.14-.4.31-.78.5-1.15.19-.37.36-.65.49-.83.18-.24.43-.35.74-.33.31.02.59.12.85.29.26.18.45.4.57.68.12.28.07.56-.15.83Z"/>
    <path class="cls-5" d="M183.58,199.17c-.06.39-.21.87-.47,1.45-.26.57-.6,1.13-1.03,1.65-.43.53-.94.97-1.54,1.32-.6.35-1.29.5-2.07.45-.33-.02-.67-.12-1-.29-.33-.18-.62-.41-.86-.71-.24-.3-.43-.64-.56-1.04-.13-.4-.16-.85-.08-1.35.13-.89.39-1.65.76-2.28.38-.63.79-1.16,1.24-1.59.22-.2.5-.26.83-.18.33.08.63.27.89.57-.48-.65-.71-1.25-.68-1.81.03-.56.2-1.01.51-1.36.32-.35.72-.58,1.21-.68.49-.1.97-.03,1.45.22.47.25.88.7,1.21,1.36.33.66.49,1.56.47,2.71.28.09.57.15.88.17.31.02.61,0,.92-.03.31-.04.6-.09.88-.15.28-.06.52-.13.72-.18.17-.06.3-.03.4.08.1.11.17.25.19.42.03.17.02.33-.03.5-.05.17-.13.28-.24.33-.8.35-1.55.54-2.27.56-.71.02-1.29-.03-1.74-.14ZM180.02,197.67c.06.11.07.22.06.33-.02.11-.11.24-.28.39-.33.3-.63.66-.89,1.1-.26.44-.45.85-.57,1.24-.12.39-.15.72-.1.99.06.27.24.39.56.38.28-.02.57-.16.88-.42.31-.26.59-.56.85-.9.26-.34.49-.71.68-1.1.19-.39.32-.73.38-1.03-.24-.07-.52-.2-.83-.39-.32-.19-.56-.38-.72-.58ZM181,195.05c-.09.06-.14.16-.15.32,0,.16.02.33.1.53.07.19.18.39.33.57.15.19.33.33.56.45.02-.22.01-.46-.01-.71-.03-.25-.08-.47-.15-.67-.07-.19-.17-.34-.29-.45-.12-.1-.25-.12-.38-.04Z"/>
  </g>
</svg>