<svg width="32" height="32" viewBox="0 0 32 32" fill="none" xmlns="http://www.w3.org/2000/svg">
<rect width="32" height="32" rx="16" fill="#9AC138"/>
<rect width="32" height="32" rx="16" fill="black" fill-opacity="0.2"/>
<path d="M16.0029 5.84961C17.7627 5.85086 19.5412 6.44402 20.6104 7.64844C20.8346 7.90103 21.0491 8.14222 21.2803 8.31738C21.5086 8.4903 21.7398 8.58768 21.9971 8.56836C22.2609 8.54838 22.5619 8.40535 22.9062 8.10449C23.2497 7.80431 23.625 7.3568 24.0361 6.75293C24.3028 6.3612 24.7116 6.19122 25.1045 6.24316C25.4965 6.29504 25.8545 6.56547 26.0312 7.0127C26.4782 8.14281 26.6898 9.39436 26.6436 10.6328C26.6348 10.867 26.5072 11.0468 26.332 11.127C26.2371 11.1703 26.1308 11.1816 26.0283 11.1592C25.8369 13.9413 25.1317 16.4858 23.5547 19.1094C23.4338 19.3107 23.2236 19.3924 23.0283 19.3516C22.8341 19.3108 22.6717 19.1535 22.6289 18.9209C22.622 18.8836 22.6127 18.8479 22.6025 18.8135C22.4197 19.7704 22.0292 20.8726 21.1963 21.6123C20.999 21.7876 20.7528 21.7675 20.582 21.6357C20.4154 21.5071 20.3203 21.2756 20.3799 21.0254C20.4745 20.6284 20.5082 20.2325 20.4854 19.8496C20.3539 21.0704 20.0411 22.0125 19.2959 23.1035C19.1414 23.33 18.8903 23.3787 18.6875 23.2852C18.4895 23.1938 18.3516 22.9754 18.377 22.707C18.3933 22.5342 18.3947 22.3798 18.3838 22.2422C18.2248 22.9594 17.9417 23.997 17.4697 25.0059L17.3398 25.2744C17.0482 25.8514 16.5284 26.1504 16 26.1504C15.5045 26.1503 15.0169 25.887 14.7178 25.3789L14.6602 25.2744C14.1086 24.1828 13.7873 23.0203 13.6143 22.2393C13.6031 22.3776 13.6056 22.533 13.6221 22.707C13.6474 22.9751 13.5104 23.1937 13.3125 23.2852C13.1097 23.3789 12.8588 23.3303 12.7041 23.1035C11.9589 22.0125 11.6452 21.0705 11.5137 19.8496C11.4908 20.2325 11.5256 20.6284 11.6201 21.0254C11.6795 21.2752 11.5852 21.5069 11.4189 21.6357C11.2482 21.7678 11.0012 21.7877 10.8037 21.6123C9.9707 20.8725 9.57925 19.7704 9.39648 18.8135C9.38641 18.8478 9.37794 18.8837 9.37109 18.9209C9.32833 19.1533 9.16584 19.3108 8.97168 19.3516C8.77648 19.3926 8.56637 19.3109 8.44531 19.1094C6.86075 16.4731 6.16106 13.9256 5.9707 11.1592C5.86856 11.1814 5.76258 11.1702 5.66797 11.127C5.51468 11.0568 5.39786 10.9102 5.36523 10.7178L5.35645 10.6328C5.31033 9.3947 5.52189 8.14313 5.96875 7.0127C6.14524 6.56644 6.50274 6.29557 6.89453 6.24316C7.28742 6.19077 7.69664 6.36046 7.96387 6.75293C8.37495 7.3568 8.75025 7.80431 9.09375 8.10449C9.43812 8.40537 9.73898 8.54838 10.0029 8.56836C10.2563 8.58715 10.4872 8.49041 10.7168 8.31738C10.949 8.14225 11.1657 7.89979 11.3896 7.64746C12.4632 6.4384 14.2434 5.84845 16.0029 5.84961ZM15.9971 6.47461C14.3629 6.47575 12.7502 7.01979 11.8105 8.07812C11.5804 8.3374 11.3227 8.62957 11.0264 8.84766C10.7269 9.06807 10.377 9.22174 9.96191 9.19043C9.56764 9.16061 9.16999 8.96315 8.76562 8.61914C8.36084 8.27471 7.93888 7.7745 7.49414 7.12109C7.353 6.91394 7.15109 6.8381 6.96777 6.8623C6.8063 6.88364 6.64482 6.98467 6.54297 7.17188L6.50391 7.25684C6.12618 8.21247 5.9316 9.26349 5.93359 10.3135C5.95181 10.2823 5.96378 10.263 5.96875 10.2559L5.96973 10.2549C6.03934 10.1562 6.15237 10.1136 6.26074 10.1377C6.36671 10.1614 6.4503 10.2448 6.48047 10.3555C6.50221 10.4352 6.51322 10.5629 6.52344 10.7129C6.53438 10.8735 6.54437 11.0641 6.56152 11.3047C6.59527 11.778 6.65528 12.4064 6.79102 13.1533C7.05611 14.6119 7.61403 16.5248 8.84473 18.6182C8.9415 18.2942 9.12999 18.0288 9.41406 17.8154L9.48633 17.7754C9.56173 17.7475 9.64309 17.7549 9.71094 17.791C9.79922 17.838 9.85877 17.9292 9.87012 18.0352C10.0063 19.3168 10.4158 20.3409 11.0107 20.9707C10.8245 19.9937 10.9532 18.9904 11.375 18.1602L11.4697 17.9844C11.5432 17.8571 11.6817 17.8111 11.8037 17.8516C11.922 17.8909 12.0055 18.0039 12.0078 18.1436C12.0369 20.0937 12.1989 21.2111 13.0293 22.5146C13.0127 21.8817 13.1731 21.3743 13.5381 21.0322L13.6084 20.9834C13.6828 20.9469 13.7676 20.9472 13.8408 20.9795C13.9359 21.0216 14.0028 21.1126 14.0176 21.2227L14.0752 21.5723C14.1948 22.2241 14.5144 23.6756 15.1719 24.9766C15.3607 25.35 15.6848 25.5264 16 25.5264C16.3153 25.5263 16.6395 25.3496 16.8281 24.9766C17.7026 23.2462 17.9788 21.2494 17.9824 21.2227L18.0029 21.1445C18.0323 21.0704 18.0878 21.0112 18.1592 20.9795C18.2569 20.9363 18.3746 20.9506 18.4619 21.0322C18.8266 21.374 18.987 21.8808 18.9707 22.5127C19.8005 21.2097 19.9631 20.0929 19.9922 18.1436C19.9945 18.0037 20.0787 17.8908 20.1973 17.8516C20.3192 17.8114 20.4569 17.8574 20.5303 17.9844C21.0271 18.8464 21.1879 19.9238 20.9883 20.9707C21.5835 20.3409 21.9937 19.3172 22.1299 18.0352C22.1412 17.9293 22.2008 17.8381 22.2891 17.791C22.357 17.7548 22.4383 17.7475 22.5137 17.7754L22.5859 17.8154L22.7061 17.9131C22.9242 18.1081 23.0718 18.3421 23.1543 18.6182C24.3848 16.5251 24.9438 14.613 25.209 13.1543C25.3448 12.4072 25.4047 11.7782 25.4385 11.3047C25.4557 11.0638 25.4656 10.8738 25.4766 10.7129C25.4868 10.5628 25.4978 10.4354 25.5195 10.3555C25.5497 10.2448 25.6333 10.1614 25.7393 10.1377C25.8477 10.1136 25.9606 10.1562 26.0303 10.2549L26.0312 10.2559C26.036 10.2627 26.0475 10.2819 26.0654 10.3125C26.067 9.40598 25.9237 8.49896 25.6406 7.65332L25.4961 7.25684C25.4003 7.01498 25.2165 6.88663 25.0322 6.8623C24.849 6.83813 24.6471 6.91394 24.5059 7.12109C24.0611 7.77445 23.6392 8.2747 23.2344 8.61914C22.83 8.96314 22.4323 9.16058 22.0381 9.19043C21.6256 9.22106 21.2755 9.06766 20.9756 8.84766C20.6787 8.62981 20.42 8.33782 20.1895 8.07812C19.2458 7.01526 17.6311 6.47349 15.9971 6.47461Z" fill="#1A2722" stroke="#1A2722" stroke-width="0.3"/>
</svg>
