<svg width="37" height="39" viewBox="0 0 37 39" fill="none" xmlns="http://www.w3.org/2000/svg">
<path d="M21.7254 10.0008C22.0725 10.0226 22.3404 10.3201 22.3312 10.6738V11.6225C25.0891 11.89 26.5 13.4144 26.5 16.1549V23.736C26.5 26.7847 24.7623 28.3333 21.3428 28.3333H15.1572C11.7377 28.3333 10 26.7847 10 23.736V16.1549C10 14.3306 10.6217 13.0252 11.8971 12.263L11.9866 12.212C12.1714 12.1257 12.3883 12.1336 12.5685 12.2383C12.7788 12.3604 12.903 12.593 12.8891 12.8389C12.8751 13.0848 12.7256 13.3014 12.5029 13.3982C11.658 13.9009 11.2594 14.7765 11.2594 16.1549V16.3982H22.8891C23.2369 16.3982 23.5188 16.6849 23.5188 17.0387C23.5188 17.3925 23.2369 17.6792 22.8891 17.6792H11.2594V23.736C11.2594 26.0631 12.3913 27.0279 15.1572 27.0441H21.3428C24.0688 27.0441 25.2326 26.0549 25.2326 23.7279V16.1468C25.2326 14.1198 24.3478 13.1387 22.3312 12.9036V13.5198C22.2847 13.8482 22.0019 14.088 21.6759 14.0755C21.35 14.063 21.0858 13.8022 21.0638 13.4711V10.6171L21.0754 10.5157C21.1014 10.3828 21.1683 10.2608 21.2678 10.1681C21.3922 10.0523 21.557 9.99205 21.7254 10.0008ZM22.0881 23.0139L22.1896 23.0204C22.3636 23.0423 22.5268 23.1221 22.6529 23.249C22.8041 23.4013 22.8891 23.6088 22.8891 23.8252C22.8891 24.273 22.5323 24.636 22.092 24.636C21.6518 24.636 21.2949 24.273 21.2949 23.8252C21.2949 23.3774 21.6518 23.0144 22.092 23.0144L22.0881 23.0139ZM18.2659 23.0144L18.3659 23.0207C18.759 23.0707 19.063 23.4119 19.063 23.8252C19.063 24.273 18.7062 24.636 18.2659 24.636C17.8257 24.636 17.4688 24.273 17.4688 23.8252C17.4688 23.3774 17.8257 23.0144 18.2659 23.0144ZM14.444 23.0139L14.5454 23.0204C14.7194 23.0423 14.8826 23.1221 15.0087 23.249C15.1599 23.4013 15.2449 23.6088 15.2449 23.8252C15.2449 24.273 14.8881 24.636 14.4478 24.636C14.0076 24.636 13.6507 24.273 13.6507 23.8252C13.6507 23.3774 14.0076 23.0144 14.4478 23.0144L14.444 23.0139ZM22.0881 19.7304L22.1896 19.7367C22.3636 19.7585 22.5268 19.8383 22.6529 19.9652C22.8041 20.1175 22.8891 20.325 22.8891 20.5414C22.8891 20.9892 22.5323 21.3522 22.092 21.3522C21.6518 21.3522 21.2949 20.9892 21.2949 20.5414C21.2949 20.0936 21.6518 19.7306 22.092 19.7306L22.0881 19.7304ZM18.2659 19.7306L18.3659 19.7369C18.759 19.787 19.063 20.1281 19.063 20.5414C19.063 20.9892 18.7062 21.3522 18.2659 21.3522C17.8257 21.3522 17.4688 20.9892 17.4688 20.5414C17.4688 20.0936 17.8257 19.7306 18.2659 19.7306ZM14.444 19.7304L14.5454 19.7367C14.7194 19.7585 14.8826 19.8383 15.0087 19.9652C15.1599 20.1175 15.2449 20.325 15.2449 20.5414C15.2449 20.9892 14.8881 21.3522 14.4478 21.3522C14.0076 21.3522 13.6507 20.9892 13.6507 20.5414C13.6507 20.0936 14.0076 19.7306 14.4478 19.7306L14.444 19.7304ZM14.8025 10.0976C15.1272 10.0976 15.4 10.3457 15.4362 10.6738V11.5576H19.0391C19.3869 11.5576 19.6688 11.8444 19.6688 12.1981C19.6688 12.5519 19.3869 12.8387 19.0391 12.8387H15.4203V13.4792C15.4203 13.6505 15.3529 13.8147 15.233 13.9351C15.1132 14.0554 14.951 14.1219 14.7826 14.1198L14.6905 14.1106C14.3905 14.0578 14.1648 13.7899 14.1688 13.4711V10.6738L14.1866 10.5779C14.2602 10.2985 14.5104 10.0976 14.8025 10.0976Z" fill="#1A2722"/>
</svg>
