<svg width="32" height="32" viewBox="0 0 32 32" fill="none" xmlns="http://www.w3.org/2000/svg">
<rect width="32" height="32" rx="16" fill="#9AC138"/>
<rect width="32" height="32" rx="16" fill="black" fill-opacity="0.2"/>
<path d="M28.5085 13.1563L23.0933 8L9.28037 8L9.22366 8.05388L3.75074 13.2537L16.3564 26.2259L28.5085 13.1563ZM27.9581 13.1731L16.3502 25.6575L4.30763 13.2649L9.43681 8.39169L22.9367 8.39169L27.9581 13.1731Z" fill="#1A2722"/>
<path d="M28.2339 13.4148L28.2326 13.0232L4.14484 13.1008L4.14612 13.4924L28.2339 13.4148Z" fill="#1A2722"/>
<path d="M23.2402 8.39994L22.911 8.18788L19.6892 13.1894L20.0185 13.4015L23.2402 8.39994Z" fill="#1A2722"/>
<path d="M20.2056 13.179L16.4819 8.2141L16.1685 8.44908L19.8922 13.414L20.2056 13.179Z" fill="#1A2722"/>
<path d="M16.5591 8.41095L16.2466 8.1748L12.5229 13.101L12.8354 13.3371L16.5591 8.41095Z" fill="#1A2722"/>
<path d="M12.7664 13.2299L9.46941 8.071L9.13943 8.28193L12.4365 13.4408L12.7664 13.2299ZM16.521 8.4092H16.1293V13.2966H16.521V8.4092Z" fill="#1A2722"/>
<path d="M16.521 13.1802H16.1293V25.9804H16.521V13.1802Z" fill="#1A2722"/>
<path d="M20.1597 13.2725L19.7829 13.1655L16.2144 25.733L16.5911 25.84L20.1597 13.2725Z" fill="#1A2722"/>
<path d="M16.4357 25.7708L12.7895 13.2032L12.4134 13.3124L16.0595 25.8799L16.4357 25.7708ZM9.52717 8.37098L9.14949 8.26738L7.80174 13.1796L8.1795 13.2832L9.52717 8.37098ZM24.6941 13.0979L23.2266 8.14745L22.8512 8.25877L24.3185 13.2092L24.6941 13.0979Z" fill="#1A2722"/>
<path d="M24.7129 13.2478L24.3841 13.035L16.1997 25.6801L16.5285 25.8929L24.7129 13.2478Z" fill="#1A2722"/>
<path d="M16.5271 25.7945L8.07117 13.0719L7.74499 13.2886L16.2009 26.0113L16.5271 25.7945Z" fill="#1A2722"/>
</svg>
