<svg width="32" height="32" viewBox="0 0 32 32" fill="none" xmlns="http://www.w3.org/2000/svg">
<rect width="32" height="32" rx="16" fill="#9AC138"/>
<rect width="32" height="32" rx="16" fill="black" fill-opacity="0.2"/>
<path d="M16 8C12.5 8 9.5 10.5 9 14C8.5 17.5 10 20 12 22C13 23 14.5 24 16 24C17.5 24 19 23 20 22C22 20 23.5 17.5 23 14C22.5 10.5 19.5 8 16 8ZM16 9.5C18.5 9.5 21 11.5 21.5 14.2C21.8 16.5 21 18.5 19.5 20.5C18.5 21.5 17.3 22.5 16 22.5C14.7 22.5 13.5 21.5 12.5 20.5C11 18.5 10.2 16.5 10.5 14.2C11 11.5 13.5 9.5 16 9.5Z" fill="#1A2722"/>
<circle cx="13" cy="15" r="1.2" fill="#1A2722"/>
<circle cx="19" cy="15" r="1.2" fill="#1A2722"/>
<path d="M13.5 18.5C14 19.5 15 20 16 20C17 20 18 19.5 18.5 18.5" stroke="#1A2722" stroke-width="0.8" stroke-linecap="round"/>
</svg>
