<svg width="32" height="32" viewBox="0 0 32 32" fill="none" xmlns="http://www.w3.org/2000/svg">
<rect width="32" height="32" rx="16" fill="#9AC138"/>
<rect width="32" height="32" rx="16" fill="black" fill-opacity="0.2"/>
<path d="M13.8242 6.40625C13.9463 5.90363 14.5707 5.72956 14.9355 6.09473L26.9053 18.0645C27.271 18.43 27.0955 19.0538 26.5938 19.1758L25.7646 19.377L26.2188 19.8311C26.4769 20.0894 26.4769 20.5093 26.2188 20.7676L21.7676 25.2188C21.541 25.4453 21.1916 25.4737 20.9346 25.3037L20.8311 25.2188L20.377 24.7646L20.1758 25.5938C20.0537 26.0963 19.4297 26.2705 19.0645 25.9053L7.09473 13.9355C6.72907 13.5701 6.90427 12.9462 7.40625 12.8242L8.23438 12.6221L7.78125 12.1689C7.52314 11.9107 7.52308 11.4906 7.78125 11.2324L12.2324 6.78125C12.4913 6.52236 12.9103 6.52239 13.1689 6.78125L13.6221 7.23438L13.8242 6.40625ZM14.6504 6.37988C14.5074 6.23705 14.2643 6.30639 14.2168 6.50195L13.9297 7.67871C13.8935 7.82882 13.7047 7.88777 13.5908 7.77441L12.8828 7.06738C12.7816 6.96626 12.6193 6.96659 12.5186 7.06738L8.06738 11.5186C7.96684 11.6191 7.96677 11.7831 8.06738 11.8838L8.77441 12.5908C8.88641 12.7027 8.83191 12.8937 8.67969 12.9307L7.50195 13.2168C7.30612 13.2644 7.23743 13.5079 7.37988 13.6504L19.3496 25.6201C19.4921 25.7628 19.7356 25.6938 19.7832 25.498L20.0693 24.3203C20.1059 24.1694 20.2961 24.1125 20.4092 24.2256L21.1162 24.9326C21.2125 25.0289 21.3852 25.0289 21.4814 24.9326L25.9326 20.4814C26.0331 20.3809 26.0331 20.2168 25.9326 20.1162L25.2256 19.4092C25.1136 19.2973 25.1681 19.1063 25.3203 19.0693L26.498 18.7832C26.694 18.7356 26.7625 18.4919 26.6201 18.3496L14.6504 6.37988Z" fill="#1A2722" stroke="#1A2722" stroke-width="0.2"/>
<path d="M10.0791 9.34863C10.4516 8.8116 11.2074 8.74908 11.6621 9.20312C11.9343 9.47532 12.0246 9.87536 11.9121 10.2383L12.9346 11.2607C13.069 11.395 13.2593 11.4502 13.4453 11.4092C13.7727 11.337 14.108 11.4352 14.3438 11.6709C14.5795 11.9069 14.6777 12.2428 14.6055 12.5684C14.5642 12.7539 14.6195 12.9447 14.7539 13.0791L15.9805 14.3057C16.7558 13.8374 17.7465 13.949 18.3984 14.6006C19.0508 15.2527 19.1612 16.2419 18.6914 17.0156L19.9189 18.2432C20.0534 18.3775 20.2447 18.4328 20.4297 18.3916C20.7571 18.3196 21.0931 18.4172 21.3291 18.6533C21.5648 18.8893 21.6621 19.2252 21.5898 19.5508C21.5484 19.7362 21.6038 19.927 21.7383 20.0615L22.7607 21.084C23.1232 20.9701 23.5241 21.0611 23.7979 21.335C24.0151 21.552 24.1233 21.8525 24.0957 22.1582C24.0249 22.9366 23.138 23.3611 22.4932 22.9248C22.1056 22.6625 21.9476 22.1897 22.0859 21.7568L21.0645 20.7354C20.9469 20.6178 20.7867 20.5601 20.624 20.5752L20.5537 20.5869C20.2278 20.6589 19.8923 20.5617 19.6562 20.3262C19.4201 20.0905 19.3225 19.7544 19.3945 19.4287C19.436 19.2413 19.3801 19.0511 19.2461 18.917L18.0176 17.6895C17.2429 18.16 16.2531 18.0507 15.6006 17.3984C14.9575 16.7554 14.8445 15.7453 15.3066 14.9785L14.0801 13.7529C13.9457 13.6186 13.7557 13.5631 13.5703 13.6045H13.5693C13.2436 13.6766 12.9079 13.5791 12.6719 13.3438C12.4357 13.108 12.3381 12.772 12.4102 12.4463C12.4516 12.2588 12.3956 12.0686 12.2617 11.9346L11.2412 10.9141C10.8072 11.0528 10.3338 10.8946 10.0713 10.5059C9.84001 10.163 9.84351 9.68874 10.0791 9.34863ZM11.3662 9.5C11.103 9.23684 10.6528 9.25688 10.4238 9.58691C10.2852 9.78688 10.283 10.0702 10.4189 10.2715C10.5931 10.5299 10.9211 10.6179 11.2002 10.4814H11.2012C11.2808 10.4429 11.3768 10.4578 11.4404 10.5215L12.5576 11.6377C12.7933 11.8733 12.8912 12.2097 12.8193 12.5352C12.778 12.7225 12.8337 12.9128 12.9678 13.0469C13.1024 13.1813 13.2933 13.237 13.4785 13.1953L13.6016 13.1758C13.8874 13.1494 14.1704 13.2496 14.377 13.4561L15.7236 14.8037C15.7967 14.8769 15.8057 14.9927 15.7441 15.0762C15.2909 15.6904 15.3562 16.5623 15.8965 17.1025C16.4452 17.6512 17.2965 17.7142 17.9219 17.2529C18.0049 17.1919 18.1209 17.2001 18.1943 17.2734L19.542 18.6201C19.7778 18.8559 19.8758 19.1921 19.8037 19.5176C19.7624 19.7051 19.8179 19.8954 19.9521 20.0293C20.087 20.1638 20.2784 20.2193 20.4629 20.1777L20.5859 20.1582C20.8716 20.1319 21.1549 20.232 21.3613 20.4385L22.4795 21.5566C22.5428 21.6198 22.5587 21.7165 22.5195 21.7969C22.3832 22.0756 22.4709 22.4038 22.7285 22.5781C22.9284 22.7132 23.2104 22.7111 23.4102 22.5732L23.4678 22.5293C23.7396 22.2934 23.7525 21.8826 23.502 21.6318C23.3412 21.4712 23.105 21.4147 22.8906 21.4805L22.8008 21.5166C22.721 21.5558 22.6239 21.5399 22.5605 21.4766L21.4424 20.3584C21.2062 20.1224 21.1081 19.7859 21.1807 19.46C21.2219 19.2747 21.1664 19.0847 21.0322 18.9502C20.8979 18.8159 20.7074 18.7598 20.5215 18.8008C20.1948 18.8727 19.8588 18.775 19.623 18.5391L18.2754 17.1924C18.2023 17.1192 18.1934 17.0034 18.2549 16.9199C18.7073 16.3063 18.6418 15.4357 18.1025 14.8965C17.5544 14.349 16.7035 14.2846 16.0771 14.7432C15.9941 14.8039 15.8779 14.7958 15.8047 14.7227L14.458 13.376C14.2219 13.14 14.1238 12.8035 14.1963 12.4775L14.207 12.4082C14.2223 12.2457 14.1653 12.0855 14.0479 11.9678C13.9303 11.8502 13.7701 11.7926 13.6074 11.8076L13.5371 11.8184C13.2098 11.8903 12.8744 11.7933 12.6387 11.5576L11.5215 10.4404C11.4585 10.3775 11.4431 10.2811 11.4814 10.2012C11.5955 9.96314 11.5478 9.68169 11.3662 9.5Z" fill="#1A2722" stroke="#1A2722" stroke-width="0.2"/>
</svg>
