<svg width="43" height="46" viewBox="0 0 43 46" fill="none" xmlns="http://www.w3.org/2000/svg">
<path fill-rule="evenodd" clip-rule="evenodd" d="M31.8034 31.2559H16.9914C16.7651 31.2562 16.5438 31.1884 16.3555 31.0609C16.1673 30.9335 16.0206 30.7521 15.9341 30.5398C15.8476 30.3276 15.8251 30.0941 15.8695 29.8689C15.9139 29.6436 16.0232 29.4369 16.1836 29.2749C16.3991 29.0561 16.6871 28.9328 16.9923 28.9328H31.6577C31.8819 28.9328 32.075 28.7787 32.1293 28.56L34.5741 18.6392C34.5919 18.5666 34.5932 18.4908 34.5779 18.4175C34.5625 18.3443 34.5309 18.2756 34.4854 18.2166C34.44 18.1577 34.3818 18.11 34.3155 18.0772C34.2492 18.0445 34.1763 18.0275 34.1026 18.0276H14.9285L14.2078 15.092C14.1813 14.9851 14.1203 14.8903 14.0345 14.8227C13.9487 14.7551 13.8431 14.7187 13.7345 14.7192H10.4845C10.3561 14.7197 10.2332 14.7716 10.1424 14.8638C10.0516 14.9559 10.0005 15.0807 10 15.211C10 15.484 10.2155 15.7028 10.4845 15.7028H13.3569L14.081 18.6384L16.4009 28.0665C16.0655 28.1654 15.7491 28.3194 15.4965 28.5775C15.3004 28.7761 15.1448 29.012 15.0387 29.2718C14.9326 29.5316 14.8782 29.81 14.8784 30.0912C14.8784 30.7729 15.2103 31.3539 15.6983 31.7476C15.6345 31.7975 15.5552 31.8229 15.4948 31.8859C15.2005 32.1862 15.0002 32.5683 14.9194 32.9839C14.8385 33.3995 14.8807 33.8302 15.0405 34.2215C15.2004 34.6129 15.4707 34.9475 15.8176 35.1832C16.1644 35.4189 16.5722 35.5451 16.9896 35.546H16.9966C17.5604 35.546 18.0914 35.3237 18.4914 34.9151C18.688 34.7167 18.8439 34.4804 18.9497 34.2203C19.0555 33.9601 19.1092 33.6811 19.1078 33.3996C19.1078 32.9621 18.9457 32.5806 18.7224 32.2394H30.0741C29.8466 32.5894 29.6905 32.9744 29.6905 33.3996C29.6903 33.9683 29.9125 34.5139 30.3084 34.9163C30.7043 35.3188 31.2414 35.5453 31.8017 35.546H31.8103C32.3724 35.546 32.9052 35.3237 33.3017 34.9151C33.4984 34.7165 33.6542 34.4803 33.7603 34.2202C33.8664 33.9601 33.9206 33.6812 33.9198 33.3996C33.9198 32.2219 32.9715 31.2611 31.8034 31.2559ZM33.4802 19.0129L31.2776 27.9492H17.3733L15.1715 19.0129H33.4802ZM18.1362 33.4075C18.1379 33.7155 18.0181 34.0025 17.8026 34.223C17.5871 34.4417 17.3009 34.5651 16.9957 34.5651H16.9871C16.7611 34.5648 16.5403 34.4965 16.3525 34.3687C16.1648 34.241 16.0187 34.0596 15.9326 33.8475C15.8465 33.6354 15.8243 33.4022 15.8688 33.1773C15.9133 32.9524 16.0226 32.746 16.1828 32.5841C16.343 32.4218 16.5471 32.3114 16.7692 32.2668C16.9912 32.2222 17.2214 32.2454 17.4305 32.3335C17.6395 32.4217 17.8182 32.5707 17.9438 32.7619C18.0694 32.9531 18.1364 33.1777 18.1362 33.4075ZM32.6146 34.223C32.5092 34.331 32.3839 34.4168 32.2457 34.4755C32.1075 34.5342 31.9593 34.5647 31.8095 34.5651H31.7991C31.573 34.5652 31.3519 34.497 31.1639 34.3694C30.976 34.2418 30.8295 34.0604 30.7432 33.8483C30.6569 33.6361 30.6346 33.4028 30.6791 33.1777C30.7236 32.9527 30.8328 32.7461 30.9931 32.5841C31.1531 32.4211 31.3573 32.31 31.5797 32.265C31.8021 32.22 32.0326 32.2431 32.242 32.3313C32.4514 32.4195 32.6303 32.5689 32.7559 32.7606C32.8815 32.9522 32.9482 33.1773 32.9474 33.4075C32.9483 33.7155 32.8319 34.0025 32.6146 34.223Z" fill="white"/>
<rect x="26" y="10" width="14" height="16" rx="7" fill="#99060D"/>
<path d="M33.0036 21.1087C32.4986 21.1065 32.0672 20.9734 31.7092 20.7092C31.3513 20.445 31.0775 20.0604 30.8878 19.5554C30.6982 19.0504 30.6034 18.4421 30.6034 17.7305C30.6034 17.021 30.6982 16.4148 30.8878 15.9119C31.0796 15.4091 31.3544 15.0256 31.7124 14.7614C32.0725 14.4972 32.5029 14.3651 33.0036 14.3651C33.5043 14.3651 33.9336 14.4982 34.2916 14.7646C34.6495 15.0288 34.9233 15.4123 35.113 15.9151C35.3047 16.4158 35.4006 17.021 35.4006 17.7305C35.4006 18.4442 35.3058 19.0536 35.1162 19.5586C34.9265 20.0614 34.6527 20.446 34.2948 20.7124C33.9368 20.9766 33.5064 21.1087 33.0036 21.1087ZM33.0036 20.2553C33.4468 20.2553 33.793 20.0391 34.0423 19.6065C34.2937 19.174 34.4194 18.5487 34.4194 17.7305C34.4194 17.1871 34.3619 16.728 34.2468 16.353C34.1339 15.9759 33.9709 15.6903 33.7579 15.4964C33.5469 15.3004 33.2955 15.2024 33.0036 15.2024C32.5625 15.2024 32.2163 15.4197 31.9649 15.8544C31.7135 16.2891 31.5867 16.9144 31.5846 17.7305C31.5846 18.2759 31.641 18.7372 31.754 19.1143C31.869 19.4893 32.032 19.7738 32.2429 19.9677C32.4539 20.1594 32.7074 20.2553 33.0036 20.2553Z" fill="white"/>
</svg>
