<svg width="32" height="32" viewBox="0 0 32 32" fill="none" xmlns="http://www.w3.org/2000/svg">
<rect width="32" height="32" rx="16" fill="#9AC138"/>
<rect width="32" height="32" rx="16" fill="black" fill-opacity="0.2"/>
<path d="M10.8008 25.6C10.7237 25.6 10.6463 25.5784 10.5786 25.5344C10.4248 25.4345 10.3609 25.245 10.424 25.0755L13.9748 15.5434H10.8009C10.6354 15.5434 10.4869 15.4442 10.4271 15.2937C10.3672 15.1432 10.4084 14.9723 10.5307 14.8636L21.7288 4.90214C21.8652 4.78074 22.0691 4.76596 22.2225 4.8664C22.3758 4.96684 22.4389 5.15647 22.3754 5.32561L18.8269 14.7615H21.999C22.1642 14.7615 22.3124 14.8602 22.3724 15.0103C22.4325 15.1603 22.392 15.3309 22.2706 15.44L11.0724 25.4966C10.9963 25.565 10.8988 25.6 10.8008 25.6ZM11.8353 14.7615H14.547C14.6778 14.7615 14.8003 14.8237 14.8753 14.9281C14.9504 15.0325 14.9685 15.1661 14.9238 15.2859L11.7393 23.8347L20.9718 15.5434H18.2529C18.1219 15.5434 17.9992 15.481 17.9242 15.3763C17.8492 15.2716 17.8314 15.1377 17.8765 15.0178L21.0583 6.55703L11.8353 14.7615Z" fill="#1A2722"/>
</svg>
