<svg width="32" height="32" viewBox="0 0 32 32" fill="none" xmlns="http://www.w3.org/2000/svg">
<rect width="32" height="32" rx="16" fill="#9AC138"/>
<rect width="32" height="32" rx="16" fill="black" fill-opacity="0.2"/>
<path d="M20.8673 22.0546L17.2938 4.07672C17.1527 3.44273 16.6206 3 16.0004 3C15.3562 3 14.8357 3.48716 14.703 4.08308L11.131 22.0549C10.8421 23.5172 11.0346 25.0554 11.673 26.3861L12.1123 27.3041C12.6127 28.3501 13.616 29 14.7306 29C14.9221 29 15.0473 28.7869 14.9606 28.607L13.7972 26.188C13.1807 24.9 13.0175 23.4215 13.3377 22.0247V22.0245L16.0002 10.367C16.5888 12.938 17.4379 16.6506 18.6629 22.0242C18.9817 23.4258 18.8179 24.9042 18.2013 26.1875L17.0376 28.607C16.9508 28.7877 17.0766 29 17.2676 29C18.3823 29 19.3857 28.3502 19.8857 27.3047L20.3277 26.3866V26.3864C20.9669 25.0541 21.1585 23.5156 20.8673 22.0546ZM12.8367 21.8978C12.488 23.4188 12.6655 25.029 13.3369 26.4318L14.2916 28.4168C13.5543 28.2758 12.9182 27.7828 12.5729 27.0608L12.1334 26.1425C11.5472 24.9206 11.3703 23.5079 11.6356 22.1652L14.9196 5.64238C15.088 6.38574 15.4074 7.77831 15.7348 9.20793L12.8367 21.8978ZM19.8676 26.1424L19.4254 27.0607C19.0801 27.7828 18.444 28.2758 17.7065 28.4168L18.6614 26.4318C19.3328 25.0342 19.5115 23.424 19.1642 21.898C15.0268 3.75033 15.1878 4.58174 15.1878 4.39303C15.1878 3.92358 15.5523 3.54167 16.0004 3.54167C16.38 3.54167 16.7057 3.81248 16.7907 4.19362L20.3629 22.1654C20.6302 23.5069 20.4543 24.9195 19.8676 26.1424Z" fill="#1A2722"/>
</svg>
